{  "header": {    "PPQ": 480,    "timeSignature": [      4,      4    ],    "bpm": 79.99978666723555  },  "startTime": 0,  "duration": 23.24849949583336,  "tracks": [    {      "startTime": 0,      "duration": 23.24849949583336,      "length": 63,      "id": 0,      "instrumentNumber": 9,      "instrumentFamily": "drums",      "channelNumber": 9,      "isPercussion": true,      "notes": [        {          "name": "C#2",          "midi": 37,          "time": 0,          "velocity": 0.6299212598425197,          "duration": 0.7484394958333332        },        {          "name": "C#2",          "midi": 37,          "time": 0.750002,          "velocity": 0.6299212598425197,          "duration": 0.7484394958333332        },        {          "name": "C#2",          "midi": 37,          "time": 1.500004,          "velocity": 0.6299212598425197,          "duration": 0.7484394958333331        },        {          "name": "C#2",          "midi": 37,          "time": 2.2500059999999995,          "velocity": 0.6299212598425197,          "duration": 0.7484394958333334        },        {          "name": "B1",          "midi": 35,          "time": 3.0000079999999993,          "velocity": 0.6299212598425197,          "duration": 0.3734384958333332        },        {          "name": "F#2",          "midi": 42,          "time": 3.0000079999999993,          "velocity": 0.6299212598425197,          "duration": 0.3734384958333332        },        {          "name": "F#2",          "midi": 42,          "time": 3.375008999999999,          "velocity": 0.6299212598425197,          "duration": 0.3734384958333332        },        {          "name": "D2",          "midi": 38,          "time": 3.7500099999999987,          "velocity": 0.6299212598425197,          "duration": 0.37343849583333366        },        {          "name": "F#2",          "midi": 42,          "time": 3.7500099999999987,          "velocity": 0.6299212598425197,          "duration": 0.37343849583333366        },        {          "name": "F#2",          "midi": 42,          "time": 4.125010999999999,          "velocity": 0.6299212598425197,          "duration": 0.37343849583333366        },        {          "name": "F#2",          "midi": 42,          "time": 4.500011999999999,          "velocity": 0.6299212598425197,          "duration": 0.37343849583333366        },        {          "name": "B1",          "midi": 35,          "time": 4.875012999999999,          "velocity": 0.6299212598425197,          "duration": 0.37343849583333366        },        {          "name": "F#2",          "midi": 42,          "time": 4.875012999999999,          "velocity": 0.6299212598425197,          "duration": 0.37343849583333366        },        {          "name": "D2",          "midi": 38,          "time": 5.250013999999999,          "velocity": 0.6299212598425197,          "duration": 0.37343849583333366        },        {          "name": "F#2",          "midi": 42,          "time": 5.250013999999999,          "velocity": 0.6299212598425197,          "duration": 0.37343849583333366        },        {          "name": "F#2",          "midi": 42,          "time": 5.625014999999999,          "velocity": 0.6299212598425197,          "duration": 0.37343849583333366        },        {          "name": "F#2",          "midi": 42,          "time": 6.000016,          "velocity": 0.6299212598425197,          "duration": 0.37343849583333366        },        {          "name": "F#2",          "midi": 42,          "time": 6.375017,          "velocity": 0.6299212598425197,          "duration": 0.37343849583333366        },        {          "name": "F#2",          "midi": 42,          "time": 6.750018,          "velocity": 0.6299212598425197,          "duration": 0.37343849583333366        },        {          "name": "F#2",          "midi": 42,          "time": 7.125019,          "velocity": 0.6299212598425197,          "duration": 0.37343849583333366        },        {          "name": "F#2",          "midi": 42,          "time": 7.50002,          "velocity": 0.6299212598425197,          "duration": 0.37343849583333366        },        {          "name": "D2",          "midi": 38,          "time": 7.875021,          "velocity": 0.6299212598425197,          "duration": 0.37343849583333366        },        {          "name": "F#2",          "midi": 42,          "time": 7.875021,          "velocity": 0.6299212598425197,          "duration": 0.37343849583333366        },        {          "name": "F#2",          "midi": 42,          "time": 8.250022000000001,          "velocity": 0.6299212598425197,          "duration": 0.37343849583333366        },        {          "name": "F#2",          "midi": 42,          "time": 8.625023000000002,          "velocity": 0.6299212598425197,          "duration": 0.37343849583333366        },        {          "name": "D2",          "midi": 38,          "time": 9.000024000000003,          "velocity": 0.6299212598425197,          "duration": 0.37343849583333366        },        {          "name": "D2",          "midi": 38,          "time": 9.375025000000004,          "velocity": 0.6299212598425197,          "duration": 0.37343849583333366        },        {          "name": "D2",          "midi": 38,          "time": 9.750026000000005,          "velocity": 0.6299212598425197,          "duration": 0.37343849583333366        },        {          "name": "D2",          "midi": 38,          "time": 10.125027000000006,          "velocity": 0.6299212598425197,          "duration": 0.37343849583333366        },        {          "name": "D2",          "midi": 38,          "time": 10.500028000000007,          "velocity": 0.6299212598425197,          "duration": 0.37343849583333366        },        {          "name": "D2",          "midi": 38,          "time": 10.875029000000008,          "velocity": 0.6299212598425197,          "duration": 0.37343849583333366        },        {          "name": "B1",          "midi": 35,          "time": 11.25003000000001,          "velocity": 0.6299212598425197,          "duration": 0.37343849583333366        },        {          "name": "B1",          "midi": 35,          "time": 11.62503100000001,          "velocity": 0.6299212598425197,          "duration": 0.37343849583333366        },        {          "name": "B1",          "midi": 35,          "time": 12.000032000000012,          "velocity": 0.6299212598425197,          "duration": 0.7484394958333329        },        {          "name": "F#2",          "midi": 42,          "time": 12.000032000000012,          "velocity": 0.6299212598425197,          "duration": 0.7484394958333329        },        {          "name": "F#2",          "midi": 42,          "time": 12.750034000000012,          "velocity": 0.6299212598425197,          "duration": 0.7484394958333329        },        {          "name": "D2",          "midi": 38,          "time": 13.500036000000012,          "velocity": 0.6299212598425197,          "duration": 0.7484394958333329        },        {          "name": "F#2",          "midi": 42,          "time": 13.500036000000012,          "velocity": 0.6299212598425197,          "duration": 0.7484394958333329        },        {          "name": "F#2",          "midi": 42,          "time": 14.250038000000012,          "velocity": 0.6299212598425197,          "duration": 0.7484394958333329        },        {          "name": "B1",          "midi": 35,          "time": 15.000040000000013,          "velocity": 0.6299212598425197,          "duration": 0.7484394958333329        },        {          "name": "F#2",          "midi": 42,          "time": 15.000040000000013,          "velocity": 0.6299212598425197,          "duration": 0.7484394958333329        },        {          "name": "B1",          "midi": 35,          "time": 15.750042000000013,          "velocity": 0.6299212598425197,          "duration": 0.7484394958333329        },        {          "name": "F#2",          "midi": 42,          "time": 15.750042000000013,          "velocity": 0.6299212598425197,          "duration": 0.7484394958333329        },        {          "name": "D2",          "midi": 38,          "time": 16.500044000000013,          "velocity": 0.6299212598425197,          "duration": 0.7484394958333347        },        {          "name": "F#2",          "midi": 42,          "time": 16.500044000000013,          "velocity": 0.6299212598425197,          "duration": 0.7484394958333347        },        {          "name": "F#2",          "midi": 42,          "time": 17.250046000000015,          "velocity": 0.6299212598425197,          "duration": 0.7484394958333347        },        {          "name": "B1",          "midi": 35,          "time": 18.000048000000017,          "velocity": 0.6299212598425197,          "duration": 0.37343849583333366        },        {          "name": "D2",          "midi": 38,          "time": 18.000048000000017,          "velocity": 0.6299212598425197,          "duration": 0.37343849583333366        },        {          "name": "B1",          "midi": 35,          "time": 18.37504900000002,          "velocity": 0.6299212598425197,          "duration": 0.37343849583333366        },        {          "name": "D2",          "midi": 38,          "time": 18.37504900000002,          "velocity": 0.6299212598425197,          "duration": 0.37343849583333366        },        {          "name": "B1",          "midi": 35,          "time": 18.75005000000002,          "velocity": 0.6299212598425197,          "duration": 0.37343849583333366        },        {          "name": "D2",          "midi": 38,          "time": 18.75005000000002,          "velocity": 0.6299212598425197,          "duration": 0.37343849583333366        },        {          "name": "B1",          "midi": 35,          "time": 19.12505100000002,          "velocity": 0.6299212598425197,          "duration": 0.37343849583333366        },        {          "name": "D2",          "midi": 38,          "time": 19.12505100000002,          "velocity": 0.6299212598425197,          "duration": 0.37343849583333366        },        {          "name": "F#2",          "midi": 42,          "time": 19.12505100000002,          "velocity": 0.6299212598425197,          "duration": 0.37343849583333366        },        {          "name": "D2",          "midi": 38,          "time": 19.50005200000002,          "velocity": 0.6299212598425197,          "duration": 0.37343849583333366        },        {          "name": "D2",          "midi": 38,          "time": 19.875053000000023,          "velocity": 0.6299212598425197,          "duration": 0.37343849583333366        },        {          "name": "D2",          "midi": 38,          "time": 20.250054000000024,          "velocity": 0.6299212598425197,          "duration": 0.37343849583333366        },        {          "name": "D2",          "midi": 38,          "time": 20.625055000000025,          "velocity": 0.6299212598425197,          "duration": 0.37343849583333366        },        {          "name": "B1",          "midi": 35,          "time": 21.000056000000026,          "velocity": 0.6299212598425197,          "duration": 0.7484394958333347        },        {          "name": "C#3",          "midi": 49,          "time": 21.000056000000026,          "velocity": 0.6299212598425197,          "duration": 0.7484394958333347        },        {          "name": "B1",          "midi": 35,          "time": 22.500060000000026,          "velocity": 0.6299212598425197,          "duration": 0.7484394958333347        },        {          "name": "F#2",          "midi": 42,          "time": 22.500060000000026,          "velocity": 0.6299212598425197,          "duration": 0.7484394958333347        }      ],      "controlChanges": {        "7": [          {            "number": 7,            "time": 0,            "value": 0.7874015748031497          }        ],        "10": [          {            "number": 10,            "time": 0,            "value": 0.5039370078740157          }        ],        "91": [          {            "number": 91,            "time": 0,            "value": 0          }        ],        "93": [          {            "number": 93,            "time": 0,            "value": 0          }        ],        "121": [          {            "number": 121,            "time": 0,            "value": 0          }        ]      }    }  ]}