{  "header": {    "PPQ": 480,    "timeSignature": [      4,      4    ],    "bpm": 79.99978666723555  },  "startTime": 0,  "duration": 23.99850149583336,  "tracks": [    {      "startTime": 0,      "duration": 23.99850149583336,      "length": 77,      "id": 0,      "instrumentNumber": 9,      "instrumentFamily": "drums",      "channelNumber": 9,      "isPercussion": true,      "notes": [        {          "name": "C#2",          "midi": 37,          "time": 0,          "velocity": 0.6299212598425197,          "duration": 0.7484394958333332        },        {          "name": "C#2",          "midi": 37,          "time": 0.750002,          "velocity": 0.6299212598425197,          "duration": 0.7484394958333332        },        {          "name": "C#2",          "midi": 37,          "time": 1.500004,          "velocity": 0.6299212598425197,          "duration": 0.7484394958333331        },        {          "name": "C#2",          "midi": 37,          "time": 2.2500059999999995,          "velocity": 0.6299212598425197,          "duration": 0.7484394958333334        },        {          "name": "B1",          "midi": 35,          "time": 3.0000079999999993,          "velocity": 0.6299212598425197,          "duration": 0.7484394958333334        },        {          "name": "A2",          "midi": 45,          "time": 3.750009999999999,          "velocity": 0.6299212598425197,          "duration": 0.3734384958333332        },        {          "name": "A2",          "midi": 45,          "time": 4.125010999999999,          "velocity": 0.6299212598425197,          "duration": 0.37343849583333366        },        {          "name": "A2",          "midi": 45,          "time": 4.500011999999999,          "velocity": 0.6299212598425197,          "duration": 0.37343849583333366        },        {          "name": "A2",          "midi": 45,          "time": 4.875012999999999,          "velocity": 0.6299212598425197,          "duration": 0.37343849583333366        },        {          "name": "B1",          "midi": 35,          "time": 5.250013999999999,          "velocity": 0.6299212598425197,          "duration": 0.7484394958333329        },        {          "name": "D2",          "midi": 38,          "time": 6.000015999999999,          "velocity": 0.6299212598425197,          "duration": 0.37343849583333366        },        {          "name": "F#2",          "midi": 42,          "time": 6.000015999999999,          "velocity": 0.6299212598425197,          "duration": 0.37343849583333366        },        {          "name": "D2",          "midi": 38,          "time": 6.375016999999999,          "velocity": 0.6299212598425197,          "duration": 0.37343849583333366        },        {          "name": "F#2",          "midi": 42,          "time": 6.375016999999999,          "velocity": 0.6299212598425197,          "duration": 0.37343849583333366        },        {          "name": "D2",          "midi": 38,          "time": 6.750017999999999,          "velocity": 0.6299212598425197,          "duration": 0.37343849583333366        },        {          "name": "F#2",          "midi": 42,          "time": 6.750017999999999,          "velocity": 0.6299212598425197,          "duration": 0.37343849583333366        },        {          "name": "D2",          "midi": 38,          "time": 7.125018999999999,          "velocity": 0.6299212598425197,          "duration": 0.37343849583333366        },        {          "name": "F#2",          "midi": 42,          "time": 7.125018999999999,          "velocity": 0.6299212598425197,          "duration": 0.37343849583333366        },        {          "name": "D2",          "midi": 38,          "time": 7.500019999999999,          "velocity": 0.6299212598425197,          "duration": 0.18593799583333315        },        {          "name": "F#2",          "midi": 42,          "time": 7.500019999999999,          "velocity": 0.6299212598425197,          "duration": 0.18593799583333315        },        {          "name": "D2",          "midi": 38,          "time": 7.687520499999999,          "velocity": 0.6299212598425197,          "duration": 0.18593799583333315        },        {          "name": "F#2",          "midi": 42,          "time": 7.687520499999999,          "velocity": 0.6299212598425197,          "duration": 0.18593799583333315        },        {          "name": "B1",          "midi": 35,          "time": 8.250021999999998,          "velocity": 0.6299212598425197,          "duration": 0.37343849583333366        },        {          "name": "B1",          "midi": 35,          "time": 8.625022999999999,          "velocity": 0.6299212598425197,          "duration": 0.37343849583333366        },        {          "name": "C3",          "midi": 48,          "time": 9.000024,          "velocity": 0.6299212598425197,          "duration": 0.37343849583333366        },        {          "name": "C3",          "midi": 48,          "time": 9.375025,          "velocity": 0.6299212598425197,          "duration": 0.37343849583333366        },        {          "name": "C3",          "midi": 48,          "time": 9.750026000000002,          "velocity": 0.6299212598425197,          "duration": 0.37343849583333366        },        {          "name": "C3",          "midi": 48,          "time": 10.125027000000003,          "velocity": 0.6299212598425197,          "duration": 0.37343849583333366        },        {          "name": "B1",          "midi": 35,          "time": 10.500028000000004,          "velocity": 0.6299212598425197,          "duration": 0.37343849583333366        },        {          "name": "A2",          "midi": 45,          "time": 10.500028000000004,          "velocity": 0.6299212598425197,          "duration": 0.37343849583333366        },        {          "name": "C3",          "midi": 48,          "time": 10.500028000000004,          "velocity": 0.6299212598425197,          "duration": 0.37343849583333366        },        {          "name": "B1",          "midi": 35,          "time": 10.875029000000005,          "velocity": 0.6299212598425197,          "duration": 0.37343849583333366        },        {          "name": "A2",          "midi": 45,          "time": 10.875029000000005,          "velocity": 0.6299212598425197,          "duration": 0.37343849583333366        },        {          "name": "C3",          "midi": 48,          "time": 10.875029000000005,          "velocity": 0.6299212598425197,          "duration": 0.37343849583333366        },        {          "name": "B1",          "midi": 35,          "time": 11.250030000000006,          "velocity": 0.6299212598425197,          "duration": 0.37343849583333366        },        {          "name": "A2",          "midi": 45,          "time": 11.250030000000006,          "velocity": 0.6299212598425197,          "duration": 0.37343849583333366        },        {          "name": "C3",          "midi": 48,          "time": 11.250030000000006,          "velocity": 0.6299212598425197,          "duration": 0.37343849583333366        },        {          "name": "B1",          "midi": 35,          "time": 11.625031000000007,          "velocity": 0.6299212598425197,          "duration": 0.37343849583333366        },        {          "name": "A2",          "midi": 45,          "time": 11.625031000000007,          "velocity": 0.6299212598425197,          "duration": 0.37343849583333366        },        {          "name": "C3",          "midi": 48,          "time": 11.625031000000007,          "velocity": 0.6299212598425197,          "duration": 0.37343849583333366        },        {          "name": "B1",          "midi": 35,          "time": 12.000032000000008,          "velocity": 0.6299212598425197,          "duration": 0.7484394958333329        },        {          "name": "C#3",          "midi": 49,          "time": 12.000032000000008,          "velocity": 0.6299212598425197,          "duration": 0.7484394958333329        },        {          "name": "B1",          "midi": 35,          "time": 13.500036000000007,          "velocity": 0.6299212598425197,          "duration": 0.18593799583333315        },        {          "name": "F#2",          "midi": 42,          "time": 13.500036000000007,          "velocity": 0.6299212598425197,          "duration": 0.18593799583333315        },        {          "name": "B1",          "midi": 35,          "time": 13.687536500000007,          "velocity": 0.6299212598425197,          "duration": 0.18593799583333315        },        {          "name": "D2",          "midi": 38,          "time": 13.875037000000008,          "velocity": 0.6299212598425197,          "duration": 0.37343849583333366        },        {          "name": "F#2",          "midi": 42,          "time": 13.875037000000008,          "velocity": 0.6299212598425197,          "duration": 0.37343849583333366        },        {          "name": "D2",          "midi": 38,          "time": 14.812539500000009,          "velocity": 0.6299212598425197,          "duration": 0.18593799583333315        },        {          "name": "F#2",          "midi": 42,          "time": 14.812539500000009,          "velocity": 0.6299212598425197,          "duration": 0.18593799583333315        },        {          "name": "B1",          "midi": 35,          "time": 15.00004000000001,          "velocity": 0.6299212598425197,          "duration": 0.7484394958333329        },        {          "name": "F#2",          "midi": 42,          "time": 15.00004000000001,          "velocity": 0.6299212598425197,          "duration": 0.7484394958333329        },        {          "name": "B1",          "midi": 35,          "time": 15.75004200000001,          "velocity": 0.6299212598425197,          "duration": 0.7484394958333329        },        {          "name": "F#2",          "midi": 42,          "time": 15.75004200000001,          "velocity": 0.6299212598425197,          "duration": 0.7484394958333329        },        {          "name": "D2",          "midi": 38,          "time": 16.50004400000001,          "velocity": 0.6299212598425197,          "duration": 0.7484394958333347        },        {          "name": "F#2",          "midi": 42,          "time": 16.50004400000001,          "velocity": 0.6299212598425197,          "duration": 0.7484394958333347        },        {          "name": "B1",          "midi": 35,          "time": 18.00004800000001,          "velocity": 0.6299212598425197,          "duration": 0.37343849583333366        },        {          "name": "D2",          "midi": 38,          "time": 18.00004800000001,          "velocity": 0.6299212598425197,          "duration": 0.37343849583333366        },        {          "name": "B1",          "midi": 35,          "time": 18.37504900000001,          "velocity": 0.6299212598425197,          "duration": 0.37343849583333366        },        {          "name": "D2",          "midi": 38,          "time": 18.37504900000001,          "velocity": 0.6299212598425197,          "duration": 0.37343849583333366        },        {          "name": "B1",          "midi": 35,          "time": 19.125051000000013,          "velocity": 0.6299212598425197,          "duration": 0.37343849583333366        },        {          "name": "D2",          "midi": 38,          "time": 19.125051000000013,          "velocity": 0.6299212598425197,          "duration": 0.37343849583333366        },        {          "name": "F#2",          "midi": 42,          "time": 19.125051000000013,          "velocity": 0.6299212598425197,          "duration": 0.37343849583333366        },        {          "name": "D2",          "midi": 38,          "time": 19.500052000000014,          "velocity": 0.6299212598425197,          "duration": 0.37343849583333366        },        {          "name": "D2",          "midi": 38,          "time": 19.875053000000015,          "velocity": 0.6299212598425197,          "duration": 0.37343849583333366        },        {          "name": "D2",          "midi": 38,          "time": 20.250054000000016,          "velocity": 0.6299212598425197,          "duration": 0.37343849583333366        },        {          "name": "B1",          "midi": 35,          "time": 21.000056000000015,          "velocity": 0.6299212598425197,          "duration": 0.7484394958333347        },        {          "name": "C#3",          "midi": 49,          "time": 21.000056000000015,          "velocity": 0.6299212598425197,          "duration": 0.7484394958333347        },        {          "name": "B1",          "midi": 35,          "time": 21.750058000000017,          "velocity": 0.6299212598425197,          "duration": 0.24843816250000117        },        {          "name": "F#2",          "midi": 42,          "time": 21.750058000000017,          "velocity": 0.6299212598425197,          "duration": 0.24843816250000117        },        {          "name": "B1",          "midi": 35,          "time": 22.000058666666686,          "velocity": 0.6299212598425197,          "duration": 0.24843816250000117        },        {          "name": "F#2",          "midi": 42,          "time": 22.000058666666686,          "velocity": 0.6299212598425197,          "duration": 0.24843816250000117        },        {          "name": "B1",          "midi": 35,          "time": 22.250059333333354,          "velocity": 0.6299212598425197,          "duration": 0.24843816250000117        },        {          "name": "F#2",          "midi": 42,          "time": 22.250059333333354,          "velocity": 0.6299212598425197,          "duration": 0.24843816250000117        },        {          "name": "D2",          "midi": 38,          "time": 22.500060000000023,          "velocity": 0.6299212598425197,          "duration": 0.7484394958333347        },        {          "name": "F#2",          "midi": 42,          "time": 22.500060000000023,          "velocity": 0.6299212598425197,          "duration": 0.7484394958333347        },        {          "name": "D2",          "midi": 38,          "time": 23.812563500000024,          "velocity": 0.6299212598425197,          "duration": 0.18593799583333492        },        {          "name": "F#2",          "midi": 42,          "time": 23.812563500000024,          "velocity": 0.6299212598425197,          "duration": 0.18593799583333492        }      ],      "controlChanges": {        "7": [          {            "number": 7,            "time": 0,            "value": 0.7874015748031497          }        ],        "10": [          {            "number": 10,            "time": 0,            "value": 0.5039370078740157          }        ],        "91": [          {            "number": 91,            "time": 0,            "value": 0          }        ],        "93": [          {            "number": 93,            "time": 0,            "value": 0          }        ],        "121": [          {            "number": 121,            "time": 0,            "value": 0          }        ]      }    }  ]}