{  "header": {    "PPQ": 480,    "timeSignature": [      4,      4    ],    "bpm": 79.99978666723555  },  "startTime": 0,  "duration": 23.998501495833345,  "tracks": [    {      "startTime": 0,      "duration": 23.998501495833345,      "length": 93,      "id": 0,      "instrumentNumber": 9,      "instrumentFamily": "drums",      "channelNumber": 9,      "isPercussion": true,      "notes": [        {          "name": "C#2",          "midi": 37,          "time": 0,          "velocity": 0.6299212598425197,          "duration": 0.7484394958333332        },        {          "name": "C#2",          "midi": 37,          "time": 0.750002,          "velocity": 0.6299212598425197,          "duration": 0.7484394958333332        },        {          "name": "C#2",          "midi": 37,          "time": 1.500004,          "velocity": 0.6299212598425197,          "duration": 0.7484394958333331        },        {          "name": "C#2",          "midi": 37,          "time": 2.2500059999999995,          "velocity": 0.6299212598425197,          "duration": 0.7484394958333334        },        {          "name": "B1",          "midi": 35,          "time": 3.0000079999999993,          "velocity": 0.6299212598425197,          "duration": 0.09218774583333333        },        {          "name": "B1",          "midi": 35,          "time": 3.093758249999999,          "velocity": 0.6299212598425197,          "duration": 0.09218774583333333        },        {          "name": "B1",          "midi": 35,          "time": 3.187508499999999,          "velocity": 0.6299212598425197,          "duration": 0.18593799583333315        },        {          "name": "B1",          "midi": 35,          "time": 3.3750089999999986,          "velocity": 0.6299212598425197,          "duration": 0.18593799583333315        },        {          "name": "B1",          "midi": 35,          "time": 3.562509499999998,          "velocity": 0.6299212598425197,          "duration": 0.09218774583333333        },        {          "name": "B1",          "midi": 35,          "time": 3.656259749999998,          "velocity": 0.6299212598425197,          "duration": 0.09218774583333333        },        {          "name": "B1",          "midi": 35,          "time": 3.750009999999998,          "velocity": 0.6299212598425197,          "duration": 0.18593799583333315        },        {          "name": "B1",          "midi": 35,          "time": 3.9375104999999975,          "velocity": 0.6299212598425197,          "duration": 0.18593799583333315        },        {          "name": "B1",          "midi": 35,          "time": 4.125010999999997,          "velocity": 0.6299212598425197,          "duration": 0.09218774583333289        },        {          "name": "B1",          "midi": 35,          "time": 4.2187612499999965,          "velocity": 0.6299212598425197,          "duration": 0.09218774583333289        },        {          "name": "B1",          "midi": 35,          "time": 4.312511499999996,          "velocity": 0.6299212598425197,          "duration": 0.18593799583333315        },        {          "name": "B1",          "midi": 35,          "time": 4.5000119999999955,          "velocity": 0.6299212598425197,          "duration": 0.18593799583333315        },        {          "name": "B1",          "midi": 35,          "time": 4.687512499999995,          "velocity": 0.6299212598425197,          "duration": 0.09218774583333289        },        {          "name": "B1",          "midi": 35,          "time": 4.7812627499999945,          "velocity": 0.6299212598425197,          "duration": 0.09218774583333289        },        {          "name": "B1",          "midi": 35,          "time": 4.875012999999994,          "velocity": 0.6299212598425197,          "duration": 0.18593799583333315        },        {          "name": "B1",          "midi": 35,          "time": 5.0625134999999934,          "velocity": 0.6299212598425197,          "duration": 0.18593799583333315        },        {          "name": "B1",          "midi": 35,          "time": 5.250013999999993,          "velocity": 0.6299212598425197,          "duration": 0.09218774583333289        },        {          "name": "B1",          "midi": 35,          "time": 5.343764249999992,          "velocity": 0.6299212598425197,          "duration": 0.09218774583333289        },        {          "name": "B1",          "midi": 35,          "time": 5.437514499999992,          "velocity": 0.6299212598425197,          "duration": 0.18593799583333315        },        {          "name": "B1",          "midi": 35,          "time": 5.625014999999991,          "velocity": 0.6299212598425197,          "duration": 0.18593799583333315        },        {          "name": "B1",          "midi": 35,          "time": 5.812515499999991,          "velocity": 0.6299212598425197,          "duration": 0.09218774583333289        },        {          "name": "B1",          "midi": 35,          "time": 5.90626574999999,          "velocity": 0.6299212598425197,          "duration": 0.09218774583333289        },        {          "name": "B1",          "midi": 35,          "time": 6.00001599999999,          "velocity": 0.6299212598425197,          "duration": 0.09218774583333289        },        {          "name": "B1",          "midi": 35,          "time": 6.093766249999989,          "velocity": 0.6299212598425197,          "duration": 0.09218774583333289        },        {          "name": "B1",          "midi": 35,          "time": 6.1875164999999885,          "velocity": 0.6299212598425197,          "duration": 0.18593799583333315        },        {          "name": "B1",          "midi": 35,          "time": 6.375016999999988,          "velocity": 0.6299212598425197,          "duration": 0.18593799583333315        },        {          "name": "B1",          "midi": 35,          "time": 6.562517499999988,          "velocity": 0.6299212598425197,          "duration": 0.09218774583333289        },        {          "name": "B1",          "midi": 35,          "time": 6.656267749999987,          "velocity": 0.6299212598425197,          "duration": 0.09218774583333289        },        {          "name": "B1",          "midi": 35,          "time": 6.7500179999999865,          "velocity": 0.6299212598425197,          "duration": 0.18593799583333315        },        {          "name": "B1",          "midi": 35,          "time": 6.937518499999986,          "velocity": 0.6299212598425197,          "duration": 0.18593799583333315        },        {          "name": "B1",          "midi": 35,          "time": 7.125018999999986,          "velocity": 0.6299212598425197,          "duration": 0.09218774583333289        },        {          "name": "B1",          "midi": 35,          "time": 7.218769249999985,          "velocity": 0.6299212598425197,          "duration": 0.09218774583333289        },        {          "name": "B1",          "midi": 35,          "time": 7.3125194999999845,          "velocity": 0.6299212598425197,          "duration": 0.18593799583333315        },        {          "name": "B1",          "midi": 35,          "time": 7.500019999999984,          "velocity": 0.6299212598425197,          "duration": 0.18593799583333315        },        {          "name": "B1",          "midi": 35,          "time": 7.687520499999984,          "velocity": 0.6299212598425197,          "duration": 0.09218774583333289        },        {          "name": "B1",          "midi": 35,          "time": 7.781270749999983,          "velocity": 0.6299212598425197,          "duration": 0.09218774583333289        },        {          "name": "B1",          "midi": 35,          "time": 7.8750209999999825,          "velocity": 0.6299212598425197,          "duration": 0.18593799583333315        },        {          "name": "B1",          "midi": 35,          "time": 8.062521499999983,          "velocity": 0.6299212598425197,          "duration": 0.18593799583333315        },        {          "name": "B1",          "midi": 35,          "time": 8.250021999999984,          "velocity": 0.6299212598425197,          "duration": 0.09218774583333378        },        {          "name": "B1",          "midi": 35,          "time": 8.343772249999985,          "velocity": 0.6299212598425197,          "duration": 0.09218774583333378        },        {          "name": "B1",          "midi": 35,          "time": 8.437522499999986,          "velocity": 0.6299212598425197,          "duration": 0.18593799583333315        },        {          "name": "B1",          "midi": 35,          "time": 8.625022999999986,          "velocity": 0.6299212598425197,          "duration": 0.18593799583333315        },        {          "name": "B1",          "midi": 35,          "time": 8.812523499999987,          "velocity": 0.6299212598425197,          "duration": 0.09218774583333378        },        {          "name": "B1",          "midi": 35,          "time": 8.906273749999988,          "velocity": 0.6299212598425197,          "duration": 0.09218774583333378        },        {          "name": "B1",          "midi": 35,          "time": 9.00002399999999,          "velocity": 0.6299212598425197,          "duration": 0.7484394958333329        },        {          "name": "F#2",          "midi": 42,          "time": 9.75002599999999,          "velocity": 0.6299212598425197,          "duration": 0.7484394958333329        },        {          "name": "B1",          "midi": 35,          "time": 9.75002599999999,          "velocity": 0.6299212598425197,          "duration": 0.7484394958333329        },        {          "name": "F#2",          "midi": 42,          "time": 11.250029999999988,          "velocity": 0.6299212598425197,          "duration": 0.7484394958333329        },        {          "name": "F#2",          "midi": 42,          "time": 12.000031999999988,          "velocity": 0.6299212598425197,          "duration": 0.37343849583333366        },        {          "name": "B1",          "midi": 35,          "time": 12.000031999999988,          "velocity": 0.6299212598425197,          "duration": 0.7484394958333347        },        {          "name": "F#2",          "midi": 42,          "time": 12.37503299999999,          "velocity": 0.6299212598425197,          "duration": 0.37343849583333366        },        {          "name": "D2",          "midi": 38,          "time": 12.75003399999999,          "velocity": 0.6299212598425197,          "duration": 0.37343849583333366        },        {          "name": "F#2",          "midi": 42,          "time": 12.75003399999999,          "velocity": 0.6299212598425197,          "duration": 0.37343849583333366        },        {          "name": "F#2",          "midi": 42,          "time": 13.125034999999992,          "velocity": 0.6299212598425197,          "duration": 0.37343849583333366        },        {          "name": "B1",          "midi": 35,          "time": 13.500035999999993,          "velocity": 0.6299212598425197,          "duration": 0.37343849583333366        },        {          "name": "F#2",          "midi": 42,          "time": 13.500035999999993,          "velocity": 0.6299212598425197,          "duration": 0.37343849583333366        },        {          "name": "F#2",          "midi": 42,          "time": 13.875036999999994,          "velocity": 0.6299212598425197,          "duration": 0.18593799583333315        },        {          "name": "B1",          "midi": 35,          "time": 14.062537499999994,          "velocity": 0.6299212598425197,          "duration": 0.18593799583333315        },        {          "name": "D2",          "midi": 38,          "time": 14.250037999999995,          "velocity": 0.6299212598425197,          "duration": 0.37343849583333366        },        {          "name": "F#2",          "midi": 42,          "time": 14.250037999999995,          "velocity": 0.6299212598425197,          "duration": 0.37343849583333366        },        {          "name": "F#2",          "midi": 42,          "time": 14.625038999999996,          "velocity": 0.6299212598425197,          "duration": 0.37343849583333366        },        {          "name": "B1",          "midi": 35,          "time": 15.000039999999997,          "velocity": 0.6299212598425197,          "duration": 0.7484394958333329        },        {          "name": "F#2",          "midi": 42,          "time": 15.000039999999997,          "velocity": 0.6299212598425197,          "duration": 0.7484394958333329        },        {          "name": "B1",          "midi": 35,          "time": 15.750041999999997,          "velocity": 0.6299212598425197,          "duration": 0.7484394958333347        },        {          "name": "F#2",          "midi": 42,          "time": 15.750041999999997,          "velocity": 0.6299212598425197,          "duration": 0.7484394958333347        },        {          "name": "D2",          "midi": 38,          "time": 16.500044,          "velocity": 0.6299212598425197,          "duration": 0.7484394958333347        },        {          "name": "F#2",          "midi": 42,          "time": 16.500044,          "velocity": 0.6299212598425197,          "duration": 0.7484394958333347        },        {          "name": "B1",          "midi": 35,          "time": 18.000048,          "velocity": 0.6299212598425197,          "duration": 0.37343849583333366        },        {          "name": "D2",          "midi": 38,          "time": 18.000048,          "velocity": 0.6299212598425197,          "duration": 0.37343849583333366        },        {          "name": "A2",          "midi": 45,          "time": 18.000048,          "velocity": 0.6299212598425197,          "duration": 0.37343849583333366        },        {          "name": "B1",          "midi": 35,          "time": 18.375049,          "velocity": 0.6299212598425197,          "duration": 0.37343849583333366        },        {          "name": "D2",          "midi": 38,          "time": 18.375049,          "velocity": 0.6299212598425197,          "duration": 0.37343849583333366        },        {          "name": "B1",          "midi": 35,          "time": 19.125051,          "velocity": 0.6299212598425197,          "duration": 0.37343849583333366        },        {          "name": "D2",          "midi": 38,          "time": 19.125051,          "velocity": 0.6299212598425197,          "duration": 0.37343849583333366        },        {          "name": "F#2",          "midi": 42,          "time": 19.125051,          "velocity": 0.6299212598425197,          "duration": 0.37343849583333366        },        {          "name": "D2",          "midi": 38,          "time": 19.500052,          "velocity": 0.6299212598425197,          "duration": 0.37343849583333366        },        {          "name": "D2",          "midi": 38,          "time": 19.875053,          "velocity": 0.6299212598425197,          "duration": 0.37343849583333366        },        {          "name": "D2",          "midi": 38,          "time": 20.250054000000002,          "velocity": 0.6299212598425197,          "duration": 0.37343849583333366        },        {          "name": "A2",          "midi": 45,          "time": 20.625055000000003,          "velocity": 0.6299212598425197,          "duration": 0.37343849583333366        },        {          "name": "B1",          "midi": 35,          "time": 21.000056000000004,          "velocity": 0.6299212598425197,          "duration": 0.7484394958333347        },        {          "name": "C#3",          "midi": 49,          "time": 21.000056000000004,          "velocity": 0.6299212598425197,          "duration": 0.7484394958333347        },        {          "name": "B1",          "midi": 35,          "time": 21.750058000000006,          "velocity": 0.6299212598425197,          "duration": 0.24843816250000117        },        {          "name": "F#2",          "midi": 42,          "time": 21.750058000000006,          "velocity": 0.6299212598425197,          "duration": 0.24843816250000117        },        {          "name": "B1",          "midi": 35,          "time": 22.25005933333334,          "velocity": 0.6299212598425197,          "duration": 0.24843816250000117        },        {          "name": "F#2",          "midi": 42,          "time": 22.25005933333334,          "velocity": 0.6299212598425197,          "duration": 0.24843816250000117        },        {          "name": "D2",          "midi": 38,          "time": 22.50006000000001,          "velocity": 0.6299212598425197,          "duration": 0.7484394958333347        },        {          "name": "F#2",          "midi": 42,          "time": 22.50006000000001,          "velocity": 0.6299212598425197,          "duration": 0.7484394958333347        },        {          "name": "D2",          "midi": 38,          "time": 23.81256350000001,          "velocity": 0.6299212598425197,          "duration": 0.18593799583333492        },        {          "name": "F#2",          "midi": 42,          "time": 23.81256350000001,          "velocity": 0.6299212598425197,          "duration": 0.18593799583333492        }      ],      "controlChanges": {        "7": [          {            "number": 7,            "time": 0,            "value": 0.7874015748031497          }        ],        "10": [          {            "number": 10,            "time": 0,            "value": 0.5039370078740157          }        ],        "91": [          {            "number": 91,            "time": 0,            "value": 0          }        ],        "93": [          {            "number": 93,            "time": 0,            "value": 0          }        ],        "121": [          {            "number": 121,            "time": 0,            "value": 0          }        ]      }    }  ]}