{  "header": {    "PPQ": 480,    "timeSignature": [      4,      4    ],    "bpm": 75  },  "startTime": 0,  "duration": 28.79833333333334,  "tracks": [    {      "startTime": 0,      "duration": 28.79833333333334,      "length": 84,      "id": 0,      "instrumentNumber": 9,      "instrumentFamily": "drums",      "channelNumber": 9,      "isPercussion": true,      "notes": [        {          "name": "C#2",          "midi": 37,          "time": 0,          "velocity": 0.6299212598425197,          "duration": 0.7983333333333333        },        {          "name": "C#2",          "midi": 37,          "time": 0.8,          "velocity": 0.6299212598425197,          "duration": 0.7983333333333333        },        {          "name": "C#2",          "midi": 37,          "time": 1.6,          "velocity": 0.6299212598425197,          "duration": 0.7983333333333333        },        {          "name": "C#2",          "midi": 37,          "time": 2.4,          "velocity": 0.6299212598425197,          "duration": 0.7983333333333333        },        {          "name": "F#2",          "midi": 42,          "time": 3.1999999999999997,          "velocity": 0.6299212598425197,          "duration": 0.39833333333333343        },        {          "name": "B1",          "midi": 35,          "time": 3.1999999999999997,          "velocity": 0.6299212598425197,          "duration": 0.7983333333333333        },        {          "name": "F#2",          "midi": 42,          "time": 3.5999999999999996,          "velocity": 0.6299212598425197,          "duration": 0.39833333333333343        },        {          "name": "D2",          "midi": 38,          "time": 3.9999999999999996,          "velocity": 0.6299212598425197,          "duration": 0.398333333333333        },        {          "name": "F#2",          "midi": 42,          "time": 3.9999999999999996,          "velocity": 0.6299212598425197,          "duration": 0.398333333333333        },        {          "name": "F#2",          "midi": 42,          "time": 4.3999999999999995,          "velocity": 0.6299212598425197,          "duration": 0.39833333333333343        },        {          "name": "F#2",          "midi": 42,          "time": 4.8,          "velocity": 0.6299212598425197,          "duration": 0.39833333333333343        },        {          "name": "B1",          "midi": 35,          "time": 4.8,          "velocity": 0.6299212598425197,          "duration": 0.7983333333333338        },        {          "name": "F#2",          "midi": 42,          "time": 5.2,          "velocity": 0.6299212598425197,          "duration": 0.39833333333333343        },        {          "name": "D2",          "midi": 38,          "time": 5.6000000000000005,          "velocity": 0.6299212598425197,          "duration": 0.39833333333333343        },        {          "name": "F#2",          "midi": 42,          "time": 5.6000000000000005,          "velocity": 0.6299212598425197,          "duration": 0.39833333333333343        },        {          "name": "F#2",          "midi": 42,          "time": 6.000000000000001,          "velocity": 0.6299212598425197,          "duration": 0.39833333333333343        },        {          "name": "D2",          "midi": 38,          "time": 6.400000000000001,          "velocity": 0.6299212598425197,          "duration": 0.39833333333333343        },        {          "name": "D2",          "midi": 38,          "time": 6.800000000000002,          "velocity": 0.6299212598425197,          "duration": 0.39833333333333343        },        {          "name": "D2",          "midi": 38,          "time": 7.200000000000002,          "velocity": 0.6299212598425197,          "duration": 0.39833333333333343        },        {          "name": "D2",          "midi": 38,          "time": 7.600000000000002,          "velocity": 0.6299212598425197,          "duration": 0.39833333333333343        },        {          "name": "C3",          "midi": 48,          "time": 8.400000000000002,          "velocity": 0.6299212598425197,          "duration": 0.39833333333333343        },        {          "name": "A2",          "midi": 45,          "time": 8.800000000000002,          "velocity": 0.6299212598425197,          "duration": 0.39833333333333343        },        {          "name": "A2",          "midi": 45,          "time": 9.200000000000003,          "velocity": 0.6299212598425197,          "duration": 0.39833333333333343        },        {          "name": "F#2",          "midi": 42,          "time": 9.600000000000003,          "velocity": 0.6299212598425197,          "duration": 0.39833333333333343        },        {          "name": "B1",          "midi": 35,          "time": 9.600000000000003,          "velocity": 0.6299212598425197,          "duration": 0.7983333333333338        },        {          "name": "F#2",          "midi": 42,          "time": 10.000000000000004,          "velocity": 0.6299212598425197,          "duration": 0.39833333333333343        },        {          "name": "D2",          "midi": 38,          "time": 10.400000000000004,          "velocity": 0.6299212598425197,          "duration": 0.39833333333333343        },        {          "name": "F#2",          "midi": 42,          "time": 10.400000000000004,          "velocity": 0.6299212598425197,          "duration": 0.39833333333333343        },        {          "name": "F#2",          "midi": 42,          "time": 10.800000000000004,          "velocity": 0.6299212598425197,          "duration": 0.39833333333333343        },        {          "name": "F#2",          "midi": 42,          "time": 11.200000000000005,          "velocity": 0.6299212598425197,          "duration": 0.39833333333333343        },        {          "name": "B1",          "midi": 35,          "time": 11.200000000000005,          "velocity": 0.6299212598425197,          "duration": 0.7983333333333338        },        {          "name": "F#2",          "midi": 42,          "time": 11.600000000000005,          "velocity": 0.6299212598425197,          "duration": 0.39833333333333343        },        {          "name": "D2",          "midi": 38,          "time": 12.000000000000005,          "velocity": 0.6299212598425197,          "duration": 0.39833333333333343        },        {          "name": "F#2",          "midi": 42,          "time": 12.000000000000005,          "velocity": 0.6299212598425197,          "duration": 0.39833333333333343        },        {          "name": "F#2",          "midi": 42,          "time": 12.400000000000006,          "velocity": 0.6299212598425197,          "duration": 0.39833333333333343        },        {          "name": "F#2",          "midi": 42,          "time": 12.800000000000006,          "velocity": 0.6299212598425197,          "duration": 0.39833333333333343        },        {          "name": "B1",          "midi": 35,          "time": 12.800000000000006,          "velocity": 0.6299212598425197,          "duration": 0.7983333333333338        },        {          "name": "F#2",          "midi": 42,          "time": 13.200000000000006,          "velocity": 0.6299212598425197,          "duration": 0.39833333333333343        },        {          "name": "D2",          "midi": 38,          "time": 13.600000000000007,          "velocity": 0.6299212598425197,          "duration": 0.39833333333333343        },        {          "name": "F#2",          "midi": 42,          "time": 13.600000000000007,          "velocity": 0.6299212598425197,          "duration": 0.39833333333333343        },        {          "name": "F#2",          "midi": 42,          "time": 14.000000000000007,          "velocity": 0.6299212598425197,          "duration": 0.39833333333333343        },        {          "name": "B1",          "midi": 35,          "time": 14.400000000000007,          "velocity": 0.6299212598425197,          "duration": 0.39833333333333343        },        {          "name": "F#2",          "midi": 42,          "time": 14.400000000000007,          "velocity": 0.6299212598425197,          "duration": 0.39833333333333343        },        {          "name": "F#2",          "midi": 42,          "time": 14.800000000000008,          "velocity": 0.6299212598425197,          "duration": 0.19833333333333414        },        {          "name": "B1",          "midi": 35,          "time": 15.000000000000009,          "velocity": 0.6299212598425197,          "duration": 0.19833333333333414        },        {          "name": "D2",          "midi": 38,          "time": 15.20000000000001,          "velocity": 0.6299212598425197,          "duration": 0.39833333333333343        },        {          "name": "F#2",          "midi": 42,          "time": 15.20000000000001,          "velocity": 0.6299212598425197,          "duration": 0.39833333333333343        },        {          "name": "F#2",          "midi": 42,          "time": 15.60000000000001,          "velocity": 0.6299212598425197,          "duration": 0.39833333333333343        },        {          "name": "D2",          "midi": 38,          "time": 16.00000000000001,          "velocity": 0.6299212598425197,          "duration": 0.39833333333333343        },        {          "name": "A2",          "midi": 45,          "time": 16.00000000000001,          "velocity": 0.6299212598425197,          "duration": 0.39833333333333343        },        {          "name": "D2",          "midi": 38,          "time": 16.40000000000001,          "velocity": 0.6299212598425197,          "duration": 0.39833333333333343        },        {          "name": "A2",          "midi": 45,          "time": 16.40000000000001,          "velocity": 0.6299212598425197,          "duration": 0.39833333333333343        },        {          "name": "D2",          "midi": 38,          "time": 17.20000000000001,          "velocity": 0.6299212598425197,          "duration": 0.39833333333333343        },        {          "name": "A2",          "midi": 45,          "time": 17.20000000000001,          "velocity": 0.6299212598425197,          "duration": 0.39833333333333343        },        {          "name": "B1",          "midi": 35,          "time": 17.60000000000001,          "velocity": 0.6299212598425197,          "duration": 0.39833333333333343        },        {          "name": "D2",          "midi": 38,          "time": 17.60000000000001,          "velocity": 0.6299212598425197,          "duration": 0.39833333333333343        },        {          "name": "A2",          "midi": 45,          "time": 17.60000000000001,          "velocity": 0.6299212598425197,          "duration": 0.39833333333333343        },        {          "name": "B1",          "midi": 35,          "time": 18.000000000000007,          "velocity": 0.6299212598425197,          "duration": 0.39833333333333343        },        {          "name": "D2",          "midi": 38,          "time": 18.000000000000007,          "velocity": 0.6299212598425197,          "duration": 0.39833333333333343        },        {          "name": "A2",          "midi": 45,          "time": 18.000000000000007,          "velocity": 0.6299212598425197,          "duration": 0.39833333333333343        },        {          "name": "B1",          "midi": 35,          "time": 18.400000000000006,          "velocity": 0.6299212598425197,          "duration": 0.39833333333333343        },        {          "name": "D2",          "midi": 38,          "time": 18.400000000000006,          "velocity": 0.6299212598425197,          "duration": 0.39833333333333343        },        {          "name": "A2",          "midi": 45,          "time": 18.400000000000006,          "velocity": 0.6299212598425197,          "duration": 0.39833333333333343        },        {          "name": "B1",          "midi": 35,          "time": 18.800000000000004,          "velocity": 0.6299212598425197,          "duration": 0.39833333333333343        },        {          "name": "D2",          "midi": 38,          "time": 18.800000000000004,          "velocity": 0.6299212598425197,          "duration": 0.39833333333333343        },        {          "name": "A2",          "midi": 45,          "time": 18.800000000000004,          "velocity": 0.6299212598425197,          "duration": 0.39833333333333343        },        {          "name": "B1",          "midi": 35,          "time": 20.000000000000004,          "velocity": 0.6299212598425197,          "duration": 0.798333333333332        },        {          "name": "C#3",          "midi": 49,          "time": 20.000000000000004,          "velocity": 0.6299212598425197,          "duration": 0.798333333333332        },        {          "name": "B1",          "midi": 35,          "time": 21.200000000000003,          "velocity": 0.6299212598425197,          "duration": 0.39833333333333343        },        {          "name": "C#3",          "midi": 49,          "time": 21.200000000000003,          "velocity": 0.6299212598425197,          "duration": 0.39833333333333343        },        {          "name": "B1",          "midi": 35,          "time": 22.000000000000004,          "velocity": 0.6299212598425197,          "duration": 0.39833333333333343        },        {          "name": "C#3",          "midi": 49,          "time": 22.000000000000004,          "velocity": 0.6299212598425197,          "duration": 0.39833333333333343        },        {          "name": "D2",          "midi": 38,          "time": 22.400000000000002,          "velocity": 0.6299212598425197,          "duration": 0.26500000000000057        },        {          "name": "D2",          "midi": 38,          "time": 22.933333333333337,          "velocity": 0.6299212598425197,          "duration": 0.26500000000000057        },        {          "name": "C3",          "midi": 48,          "time": 23.466666666666672,          "velocity": 0.6299212598425197,          "duration": 0.26500000000000057        },        {          "name": "C3",          "midi": 48,          "time": 24.000000000000007,          "velocity": 0.6299212598425197,          "duration": 0.26500000000000057        },        {          "name": "A2",          "midi": 45,          "time": 24.533333333333342,          "velocity": 0.6299212598425197,          "duration": 0.26500000000000057        },        {          "name": "A2",          "midi": 45,          "time": 25.066666666666677,          "velocity": 0.6299212598425197,          "duration": 0.26500000000000057        },        {          "name": "D2",          "midi": 38,          "time": 25.600000000000012,          "velocity": 0.6299212598425197,          "duration": 0.39833333333333343        },        {          "name": "D2",          "midi": 38,          "time": 26.00000000000001,          "velocity": 0.6299212598425197,          "duration": 0.19833333333333414        },        {          "name": "D2",          "midi": 38,          "time": 26.20000000000001,          "velocity": 0.6299212598425197,          "duration": 0.39833333333333343        },        {          "name": "D2",          "midi": 38,          "time": 26.60000000000001,          "velocity": 0.6299212598425197,          "duration": 0.5983333333333327        },        {          "name": "B1",          "midi": 35,          "time": 28.000000000000007,          "velocity": 0.6299212598425197,          "duration": 0.798333333333332        },        {          "name": "F#2",          "midi": 42,          "time": 28.000000000000007,          "velocity": 0.6299212598425197,          "duration": 0.798333333333332        }      ],      "controlChanges": {        "7": [          {            "number": 7,            "time": 0,            "value": 0.7874015748031497          }        ],        "10": [          {            "number": 10,            "time": 0,            "value": 0.5039370078740157          }        ],        "91": [          {            "number": 91,            "time": 0,            "value": 0          }        ],        "93": [          {            "number": 93,            "time": 0,            "value": 0          }        ],        "121": [          {            "number": 121,            "time": 0,            "value": 0          }        ]      }    }  ]}