{  "header": {    "PPQ": 480,    "timeSignature": [      4,      4    ],    "bpm": 75  },  "startTime": 0,  "duration": 28.79833333333331,  "tracks": [    {      "startTime": 0,      "duration": 28.79833333333331,      "length": 52,      "id": 0,      "instrumentNumber": 9,      "instrumentFamily": "drums",      "channelNumber": 9,      "isPercussion": true,      "notes": [        {          "name": "C#2",          "midi": 37,          "time": 0,          "velocity": 0.6299212598425197,          "duration": 0.7983333333333333        },        {          "name": "C#2",          "midi": 37,          "time": 0.8,          "velocity": 0.6299212598425197,          "duration": 0.7983333333333333        },        {          "name": "C#2",          "midi": 37,          "time": 1.6,          "velocity": 0.6299212598425197,          "duration": 0.7983333333333333        },        {          "name": "C#2",          "midi": 37,          "time": 2.4,          "velocity": 0.6299212598425197,          "duration": 0.7983333333333333        },        {          "name": "D2",          "midi": 38,          "time": 3.1999999999999997,          "velocity": 0.6299212598425197,          "duration": 0.39833333333333343        },        {          "name": "D2",          "midi": 38,          "time": 3.5999999999999996,          "velocity": 0.6299212598425197,          "duration": 0.19833333333333325        },        {          "name": "D2",          "midi": 38,          "time": 3.7999999999999994,          "velocity": 0.6299212598425197,          "duration": 0.398333333333333        },        {          "name": "D2",          "midi": 38,          "time": 4.199999999999999,          "velocity": 0.6299212598425197,          "duration": 0.5983333333333336        },        {          "name": "B1",          "midi": 35,          "time": 5.6,          "velocity": 0.6299212598425197,          "duration": 0.7983333333333338        },        {          "name": "F#2",          "midi": 42,          "time": 5.6,          "velocity": 0.6299212598425197,          "duration": 0.7983333333333338        },        {          "name": "D2",          "midi": 38,          "time": 6.4,          "velocity": 0.6299212598425197,          "duration": 0.39833333333333343        },        {          "name": "D2",          "midi": 38,          "time": 6.800000000000001,          "velocity": 0.6299212598425197,          "duration": 0.19833333333333325        },        {          "name": "D2",          "midi": 38,          "time": 7.000000000000001,          "velocity": 0.6299212598425197,          "duration": 0.39833333333333343        },        {          "name": "D2",          "midi": 38,          "time": 7.400000000000001,          "velocity": 0.6299212598425197,          "duration": 0.5983333333333336        },        {          "name": "B1",          "midi": 35,          "time": 8.8,          "velocity": 0.6299212598425197,          "duration": 0.7983333333333338        },        {          "name": "F#2",          "midi": 42,          "time": 8.8,          "velocity": 0.6299212598425197,          "duration": 0.7983333333333338        },        {          "name": "D2",          "midi": 38,          "time": 9.600000000000001,          "velocity": 0.6299212598425197,          "duration": 0.39833333333333343        },        {          "name": "D2",          "midi": 38,          "time": 10.000000000000002,          "velocity": 0.6299212598425197,          "duration": 0.19833333333333414        },        {          "name": "D2",          "midi": 38,          "time": 10.200000000000003,          "velocity": 0.6299212598425197,          "duration": 0.39833333333333343        },        {          "name": "D2",          "midi": 38,          "time": 10.600000000000003,          "velocity": 0.6299212598425197,          "duration": 0.5983333333333327        },        {          "name": "B1",          "midi": 35,          "time": 12.000000000000004,          "velocity": 0.6299212598425197,          "duration": 0.7983333333333338        },        {          "name": "F#2",          "midi": 42,          "time": 12.000000000000004,          "velocity": 0.6299212598425197,          "duration": 0.7983333333333338        },        {          "name": "D2",          "midi": 38,          "time": 12.800000000000004,          "velocity": 0.6299212598425197,          "duration": 0.39833333333333343        },        {          "name": "D2",          "midi": 38,          "time": 13.200000000000005,          "velocity": 0.6299212598425197,          "duration": 0.19833333333333414        },        {          "name": "D2",          "midi": 38,          "time": 13.400000000000006,          "velocity": 0.6299212598425197,          "duration": 0.39833333333333343        },        {          "name": "D2",          "midi": 38,          "time": 13.800000000000006,          "velocity": 0.6299212598425197,          "duration": 0.5983333333333327        },        {          "name": "B1",          "midi": 35,          "time": 15.200000000000006,          "velocity": 0.6299212598425197,          "duration": 0.7983333333333338        },        {          "name": "F#2",          "midi": 42,          "time": 15.200000000000006,          "velocity": 0.6299212598425197,          "duration": 0.7983333333333338        },        {          "name": "D2",          "midi": 38,          "time": 16.000000000000007,          "velocity": 0.6299212598425197,          "duration": 0.39833333333333343        },        {          "name": "D2",          "midi": 38,          "time": 16.400000000000006,          "velocity": 0.6299212598425197,          "duration": 0.19833333333333414        },        {          "name": "D2",          "midi": 38,          "time": 16.600000000000005,          "velocity": 0.6299212598425197,          "duration": 0.39833333333333343        },        {          "name": "D2",          "midi": 38,          "time": 17.000000000000004,          "velocity": 0.6299212598425197,          "duration": 0.5983333333333327        },        {          "name": "B1",          "midi": 35,          "time": 18.400000000000002,          "velocity": 0.6299212598425197,          "duration": 0.798333333333332        },        {          "name": "F#2",          "midi": 42,          "time": 18.400000000000002,          "velocity": 0.6299212598425197,          "duration": 0.798333333333332        },        {          "name": "D2",          "midi": 38,          "time": 19.2,          "velocity": 0.6299212598425197,          "duration": 0.39833333333333343        },        {          "name": "D2",          "midi": 38,          "time": 19.599999999999998,          "velocity": 0.6299212598425197,          "duration": 0.19833333333333414        },        {          "name": "D2",          "midi": 38,          "time": 19.799999999999997,          "velocity": 0.6299212598425197,          "duration": 0.39833333333333343        },        {          "name": "D2",          "midi": 38,          "time": 20.199999999999996,          "velocity": 0.6299212598425197,          "duration": 0.5983333333333327        },        {          "name": "B1",          "midi": 35,          "time": 21.599999999999994,          "velocity": 0.6299212598425197,          "duration": 0.798333333333332        },        {          "name": "F#2",          "midi": 42,          "time": 21.599999999999994,          "velocity": 0.6299212598425197,          "duration": 0.798333333333332        },        {          "name": "D2",          "midi": 38,          "time": 22.39999999999999,          "velocity": 0.6299212598425197,          "duration": 0.39833333333333343        },        {          "name": "D2",          "midi": 38,          "time": 22.79999999999999,          "velocity": 0.6299212598425197,          "duration": 0.19833333333333414        },        {          "name": "D2",          "midi": 38,          "time": 22.99999999999999,          "velocity": 0.6299212598425197,          "duration": 0.39833333333333343        },        {          "name": "D2",          "midi": 38,          "time": 23.399999999999988,          "velocity": 0.6299212598425197,          "duration": 0.5983333333333327        },        {          "name": "B1",          "midi": 35,          "time": 24.799999999999986,          "velocity": 0.6299212598425197,          "duration": 0.798333333333332        },        {          "name": "F#2",          "midi": 42,          "time": 24.799999999999986,          "velocity": 0.6299212598425197,          "duration": 0.798333333333332        },        {          "name": "D2",          "midi": 38,          "time": 25.599999999999984,          "velocity": 0.6299212598425197,          "duration": 0.39833333333333343        },        {          "name": "D2",          "midi": 38,          "time": 25.999999999999982,          "velocity": 0.6299212598425197,          "duration": 0.19833333333333414        },        {          "name": "D2",          "midi": 38,          "time": 26.19999999999998,          "velocity": 0.6299212598425197,          "duration": 0.39833333333333343        },        {          "name": "D2",          "midi": 38,          "time": 26.59999999999998,          "velocity": 0.6299212598425197,          "duration": 0.5983333333333327        },        {          "name": "B1",          "midi": 35,          "time": 27.99999999999998,          "velocity": 0.6299212598425197,          "duration": 0.798333333333332        },        {          "name": "F#2",          "midi": 42,          "time": 27.99999999999998,          "velocity": 0.6299212598425197,          "duration": 0.798333333333332        }      ],      "controlChanges": {        "7": [          {            "number": 7,            "time": 0,            "value": 0.7874015748031497          }        ],        "10": [          {            "number": 10,            "time": 0,            "value": 0.5039370078740157          }        ],        "91": [          {            "number": 91,            "time": 0,            "value": 0          }        ],        "93": [          {            "number": 93,            "time": 0,            "value": 0          }        ],        "121": [          {            "number": 121,            "time": 0,            "value": 0          }        ]      }    }  ]}