{  "header": {    "PPQ": 480,    "timeSignature": [      4,      4    ],    "bpm": 60  },  "startTime": 0,  "duration": 31.997916666666665,  "tracks": [    {      "startTime": 0,      "duration": 31.997916666666665,      "length": 60,      "id": 0,      "instrumentNumber": 0,      "instrument": "standard kit",      "instrumentFamily": "drums",      "channelNumber": 9,      "isPercussion": true,      "notes": [        {          "name": "C#2",          "midi": 37,          "time": 0,          "velocity": 0.6299212598425197,          "duration": 0.9979166666666667        },        {          "name": "C#2",          "midi": 37,          "time": 1,          "velocity": 0.6299212598425197,          "duration": 0.9979166666666668        },        {          "name": "C#2",          "midi": 37,          "time": 2,          "velocity": 0.6299212598425197,          "duration": 0.9979166666666668        },        {          "name": "C#2",          "midi": 37,          "time": 3,          "velocity": 0.6299212598425197,          "duration": 0.9979166666666668        },        {          "name": "D2",          "midi": 38,          "time": 4.5,          "velocity": 0.6299212598425197,          "duration": 0.24791666666666679        },        {          "name": "D2",          "midi": 38,          "time": 4.75,          "velocity": 0.6299212598425197,          "duration": 0.24791666666666679        },        {          "name": "D2",          "midi": 38,          "time": 5.25,          "velocity": 0.6299212598425197,          "duration": 0.7479166666666668        },        {          "name": "D2",          "midi": 38,          "time": 6,          "velocity": 0.6299212598425197,          "duration": 0.3312499999999998        },        {          "name": "D2",          "midi": 38,          "time": 6.666666666666666,          "velocity": 0.6299212598425197,          "duration": 0.3312499999999998        },        {          "name": "D2",          "midi": 38,          "time": 7.249999999999999,          "velocity": 0.6299212598425197,          "duration": 0.24791666666666679        },        {          "name": "D2",          "midi": 38,          "time": 7.499999999999999,          "velocity": 0.6299212598425197,          "duration": 0.12291666666666679        },        {          "name": "D2",          "midi": 38,          "time": 7.624999999999999,          "velocity": 0.6299212598425197,          "duration": 0.24791666666666679        },        {          "name": "D2",          "midi": 38,          "time": 7.874999999999999,          "velocity": 0.6299212598425197,          "duration": 0.12291666666666679        },        {          "name": "D2",          "midi": 38,          "time": 7.999999999999999,          "velocity": 0.6299212598425197,          "duration": 0.7479166666666659        },        {          "name": "D2",          "midi": 38,          "time": 8.749999999999998,          "velocity": 0.6299212598425197,          "duration": 0.7479166666666668        },        {          "name": "D2",          "midi": 38,          "time": 9.499999999999998,          "velocity": 0.6299212598425197,          "duration": 0.7479166666666668        },        {          "name": "D2",          "midi": 38,          "time": 10.249999999999998,          "velocity": 0.6299212598425197,          "duration": 0.7479166666666668        },        {          "name": "D2",          "midi": 38,          "time": 11.333333333333332,          "velocity": 0.6299212598425197,          "duration": 0.3312500000000007        },        {          "name": "D2",          "midi": 38,          "time": 11.666666666666666,          "velocity": 0.6299212598425197,          "duration": 0.3312500000000007        },        {          "name": "D2",          "midi": 38,          "time": 12,          "velocity": 0.6299212598425197,          "duration": 0.16458333333333286        },        {          "name": "D2",          "midi": 38,          "time": 12.5,          "velocity": 0.6299212598425197,          "duration": 0.16458333333333286        },        {          "name": "D2",          "midi": 38,          "time": 12.666666666666666,          "velocity": 0.6299212598425197,          "duration": 0.16458333333333286        },        {          "name": "D2",          "midi": 38,          "time": 13.166666666666666,          "velocity": 0.6299212598425197,          "duration": 0.16458333333333286        },        {          "name": "D2",          "midi": 38,          "time": 13.333333333333332,          "velocity": 0.6299212598425197,          "duration": 0.16458333333333286        },        {          "name": "D2",          "midi": 38,          "time": 13.666666666666664,          "velocity": 0.6299212598425197,          "duration": 0.16458333333333286        },        {          "name": "D2",          "midi": 38,          "time": 13.83333333333333,          "velocity": 0.6299212598425197,          "duration": 0.16458333333333286        },        {          "name": "D2",          "midi": 38,          "time": 13.999999999999996,          "velocity": 0.6299212598425197,          "duration": 1.9979166666666668        },        {          "name": "D2",          "midi": 38,          "time": 15.999999999999996,          "velocity": 0.6299212598425197,          "duration": 0.497916666666665        },        {          "name": "D2",          "midi": 38,          "time": 16.499999999999996,          "velocity": 0.6299212598425197,          "duration": 0.247916666666665        },        {          "name": "D2",          "midi": 38,          "time": 16.749999999999996,          "velocity": 0.6299212598425197,          "duration": 0.497916666666665        },        {          "name": "D2",          "midi": 38,          "time": 17.249999999999996,          "velocity": 0.6299212598425197,          "duration": 0.747916666666665        },        {          "name": "D2",          "midi": 38,          "time": 17.999999999999996,          "velocity": 0.6299212598425197,          "duration": 0.747916666666665        },        {          "name": "D2",          "midi": 38,          "time": 18.749999999999996,          "velocity": 0.6299212598425197,          "duration": 0.497916666666665        },        {          "name": "D2",          "midi": 38,          "time": 19.249999999999996,          "velocity": 0.6299212598425197,          "duration": 0.747916666666665        },        {          "name": "D2",          "midi": 38,          "time": 19.999999999999996,          "velocity": 0.6299212598425197,          "duration": 0.19791666666666785        },        {          "name": "D2",          "midi": 38,          "time": 20.799999999999997,          "velocity": 0.6299212598425197,          "duration": 0.19791666666666785        },        {          "name": "D2",          "midi": 38,          "time": 21.599999999999998,          "velocity": 0.6299212598425197,          "duration": 0.19791666666666785        },        {          "name": "D2",          "midi": 38,          "time": 22,          "velocity": 0.6299212598425197,          "duration": 0.872916666666665        },        {          "name": "D2",          "midi": 38,          "time": 22.875,          "velocity": 0.6299212598425197,          "duration": 0.12291666666666501        },        {          "name": "D2",          "midi": 38,          "time": 23.833333333333332,          "velocity": 0.6299212598425197,          "duration": 0.16458333333333286        },        {          "name": "D2",          "midi": 38,          "time": 24,          "velocity": 0.6299212598425197,          "duration": 0.6645833333333329        },        {          "name": "D2",          "midi": 38,          "time": 25.333333333333332,          "velocity": 0.6299212598425197,          "duration": 0.6645833333333329        },        {          "name": "D2",          "midi": 38,          "time": 26,          "velocity": 0.6299212598425197,          "duration": 0.247916666666665        },        {          "name": "D2",          "midi": 38,          "time": 26.25,          "velocity": 0.6299212598425197,          "duration": 0.497916666666665        },        {          "name": "D2",          "midi": 38,          "time": 26.75,          "velocity": 0.6299212598425197,          "duration": 0.497916666666665        },        {          "name": "D2",          "midi": 38,          "time": 27.25,          "velocity": 0.6299212598425197,          "duration": 0.747916666666665        },        {          "name": "D2",          "midi": 38,          "time": 28,          "velocity": 0.6299212598425197,          "duration": 0.12291666666666501        },        {          "name": "D2",          "midi": 38,          "time": 28.125,          "velocity": 0.6299212598425197,          "duration": 0.12291666666666501        },        {          "name": "D2",          "midi": 38,          "time": 28.25,          "velocity": 0.6299212598425197,          "duration": 0.12291666666666501        },        {          "name": "D2",          "midi": 38,          "time": 28.375,          "velocity": 0.6299212598425197,          "duration": 0.12291666666666501        },        {          "name": "D2",          "midi": 38,          "time": 28.625,          "velocity": 0.6299212598425197,          "duration": 0.12291666666666501        },        {          "name": "D2",          "midi": 38,          "time": 28.875,          "velocity": 0.6299212598425197,          "duration": 0.12291666666666501        },        {          "name": "D2",          "midi": 38,          "time": 29,          "velocity": 0.6299212598425197,          "duration": 0.12291666666666501        },        {          "name": "D2",          "midi": 38,          "time": 29.125,          "velocity": 0.6299212598425197,          "duration": 0.12291666666666501        },        {          "name": "D2",          "midi": 38,          "time": 29.625,          "velocity": 0.6299212598425197,          "duration": 0.12291666666666501        },        {          "name": "D2",          "midi": 38,          "time": 29.75,          "velocity": 0.6299212598425197,          "duration": 0.12291666666666501        },        {          "name": "D2",          "midi": 38,          "time": 29.875,          "velocity": 0.6299212598425197,          "duration": 0.12291666666666501        },        {          "name": "D2",          "midi": 38,          "time": 30.333333333333332,          "velocity": 0.6299212598425197,          "duration": 0.16458333333333286        },        {          "name": "D2",          "midi": 38,          "time": 30.5,          "velocity": 0.6299212598425197,          "duration": 0.16458333333333286        },        {          "name": "D2",          "midi": 38,          "time": 31,          "velocity": 0.6299212598425197,          "duration": 0.997916666666665        }      ],      "controlChanges": {        "7": [          {            "number": 7,            "time": 0,            "value": 0.7874015748031497          }        ],        "10": [          {            "number": 10,            "time": 0,            "value": 0.5039370078740157          }        ],        "91": [          {            "number": 91,            "time": 0,            "value": 0          }        ],        "93": [          {            "number": 93,            "time": 0,            "value": 0          }        ],        "121": [          {            "number": 121,            "time": 0,            "value": 0          }        ]      }    }  ]}