{  "header": {    "PPQ": 480,    "timeSignature": [      3,      4    ],    "bpm": 120  },  "startTime": 0,  "duration": 11.998958333333333,  "tracks": [    {      "startTime": 0,      "duration": 11.998958333333333,      "length": 27,      "id": 0,      "instrumentNumber": 0,      "instrument": "standard kit",      "instrumentFamily": "drums",      "channelNumber": 9,      "isPercussion": true,      "notes": [        {          "name": "B1",          "midi": 35,          "time": 0,          "velocity": 0.6299212598425197,          "duration": 0.49895833333333334        },        {          "name": "B1",          "midi": 35,          "time": 0.5,          "velocity": 0.6299212598425197,          "duration": 0.4989583333333334        },        {          "name": "B1",          "midi": 35,          "time": 1,          "velocity": 0.6299212598425197,          "duration": 0.4989583333333334        },        {          "name": "D2",          "midi": 38,          "time": 1.5,          "velocity": 0.6299212598425197,          "duration": 0.4989583333333334        },        {          "name": "D2",          "midi": 38,          "time": 2,          "velocity": 0.6299212598425197,          "duration": 0.4989583333333334        },        {          "name": "D2",          "midi": 38,          "time": 2.5,          "velocity": 0.6299212598425197,          "duration": 0.4989583333333334        },        {          "name": "B1",          "midi": 35,          "time": 3,          "velocity": 0.6299212598425197,          "duration": 0.4989583333333334        },        {          "name": "B1",          "midi": 35,          "time": 3.5,          "velocity": 0.6299212598425197,          "duration": 0.4989583333333334        },        {          "name": "B1",          "midi": 35,          "time": 4,          "velocity": 0.6299212598425197,          "duration": 0.4989583333333334        },        {          "name": "D2",          "midi": 38,          "time": 4.5,          "velocity": 0.6299212598425197,          "duration": 0.4989583333333334        },        {          "name": "B1",          "midi": 35,          "time": 4.5,          "velocity": 0.6299212598425197,          "duration": 0.4989583333333334        },        {          "name": "D2",          "midi": 38,          "time": 5,          "velocity": 0.6299212598425197,          "duration": 0.4989583333333334        },        {          "name": "B1",          "midi": 35,          "time": 5,          "velocity": 0.6299212598425197,          "duration": 0.4989583333333334        },        {          "name": "D2",          "midi": 38,          "time": 5.5,          "velocity": 0.6299212598425197,          "duration": 0.4989583333333334        },        {          "name": "D2",          "midi": 38,          "time": 6,          "velocity": 0.6299212598425197,          "duration": 0.4989583333333334        },        {          "name": "B1",          "midi": 35,          "time": 6,          "velocity": 0.6299212598425197,          "duration": 0.4989583333333334        },        {          "name": "D2",          "midi": 38,          "time": 6.5,          "velocity": 0.6299212598425197,          "duration": 0.4989583333333334        },        {          "name": "B1",          "midi": 35,          "time": 6.5,          "velocity": 0.6299212598425197,          "duration": 0.4989583333333334        },        {          "name": "B1",          "midi": 35,          "time": 7,          "velocity": 0.6299212598425197,          "duration": 0.4989583333333334        },        {          "name": "B1",          "midi": 35,          "time": 7.5,          "velocity": 0.6299212598425197,          "duration": 0.4989583333333334        },        {          "name": "B1",          "midi": 35,          "time": 8,          "velocity": 0.6299212598425197,          "duration": 0.4989583333333325        },        {          "name": "B1",          "midi": 35,          "time": 9,          "velocity": 0.6299212598425197,          "duration": 0.4989583333333325        },        {          "name": "B1",          "midi": 35,          "time": 9.5,          "velocity": 0.6299212598425197,          "duration": 0.4989583333333325        },        {          "name": "B1",          "midi": 35,          "time": 10,          "velocity": 0.6299212598425197,          "duration": 0.4989583333333325        },        {          "name": "B1",          "midi": 35,          "time": 10.5,          "velocity": 0.6299212598425197,          "duration": 0.4989583333333325        },        {          "name": "B1",          "midi": 35,          "time": 11,          "velocity": 0.6299212598425197,          "duration": 0.4989583333333325        },        {          "name": "B1",          "midi": 35,          "time": 11.5,          "velocity": 0.6299212598425197,          "duration": 0.4989583333333325        }      ],      "controlChanges": {        "7": [          {            "number": 7,            "time": 0,            "value": 0.7874015748031497          }        ],        "10": [          {            "number": 10,            "time": 0,            "value": 0.5039370078740157          }        ],        "91": [          {            "number": 91,            "time": 0,            "value": 0          }        ],        "93": [          {            "number": 93,            "time": 0,            "value": 0          }        ],        "121": [          {            "number": 121,            "time": 0,            "value": 0          }        ]      }    }  ]}