{  "header": {    "PPQ": 480,    "timeSignature": [      3,      8    ],    "bpm": 40  },  "startTime": 0,  "duration": 17.9984375,  "tracks": [    {      "startTime": 0,      "duration": 17.9984375,      "length": 29,      "id": 0,      "instrumentNumber": 0,      "instrument": "standard kit",      "instrumentFamily": "drums",      "channelNumber": 9,      "isPercussion": true,      "notes": [        {          "name": "C#2",          "midi": 37,          "time": 0,          "velocity": 0.6299212598425197,          "duration": 0.3734375        },        {          "name": "C#2",          "midi": 37,          "time": 0.375,          "velocity": 0.6299212598425197,          "duration": 0.3734375        },        {          "name": "C#2",          "midi": 37,          "time": 0.75,          "velocity": 0.6299212598425197,          "duration": 0.7484375000000001        },        {          "name": "B1",          "midi": 35,          "time": 1.125,          "velocity": 0.6299212598425197,          "duration": 0.3734375000000001        },        {          "name": "B1",          "midi": 35,          "time": 1.5,          "velocity": 0.6299212598425197,          "duration": 0.7484375000000001        },        {          "name": "D2",          "midi": 38,          "time": 2.25,          "velocity": 0.6299212598425197,          "duration": 0.7484375000000001        },        {          "name": "D2",          "midi": 38,          "time": 3,          "velocity": 0.6299212598425197,          "duration": 0.7484375000000001        },        {          "name": "D2",          "midi": 38,          "time": 3.75,          "velocity": 0.6299212598425197,          "duration": 0.7484374999999996        },        {          "name": "B1",          "midi": 35,          "time": 4.5,          "velocity": 0.6299212598425197,          "duration": 0.7484374999999996        },        {          "name": "B1",          "midi": 35,          "time": 5.25,          "velocity": 0.6299212598425197,          "duration": 0.7484374999999996        },        {          "name": "B1",          "midi": 35,          "time": 6,          "velocity": 0.6299212598425197,          "duration": 0.7484374999999996        },        {          "name": "D2",          "midi": 38,          "time": 6.75,          "velocity": 0.6299212598425197,          "duration": 0.7484374999999996        },        {          "name": "B1",          "midi": 35,          "time": 6.75,          "velocity": 0.6299212598425197,          "duration": 0.7484374999999996        },        {          "name": "D2",          "midi": 38,          "time": 7.5,          "velocity": 0.6299212598425197,          "duration": 0.7484374999999996        },        {          "name": "B1",          "midi": 35,          "time": 7.5,          "velocity": 0.6299212598425197,          "duration": 0.7484374999999996        },        {          "name": "D2",          "midi": 38,          "time": 8.25,          "velocity": 0.6299212598425197,          "duration": 0.7484374999999996        },        {          "name": "D2",          "midi": 38,          "time": 9,          "velocity": 0.6299212598425197,          "duration": 0.7484374999999996        },        {          "name": "B1",          "midi": 35,          "time": 9,          "velocity": 0.6299212598425197,          "duration": 0.7484374999999996        },        {          "name": "D2",          "midi": 38,          "time": 9.75,          "velocity": 0.6299212598425197,          "duration": 0.7484374999999996        },        {          "name": "B1",          "midi": 35,          "time": 9.75,          "velocity": 0.6299212598425197,          "duration": 0.7484374999999996        },        {          "name": "B1",          "midi": 35,          "time": 10.5,          "velocity": 0.6299212598425197,          "duration": 0.7484374999999996        },        {          "name": "B1",          "midi": 35,          "time": 11.25,          "velocity": 0.6299212598425197,          "duration": 0.7484374999999996        },        {          "name": "B1",          "midi": 35,          "time": 12,          "velocity": 0.6299212598425197,          "duration": 0.7484374999999996        },        {          "name": "B1",          "midi": 35,          "time": 13.5,          "velocity": 0.6299212598425197,          "duration": 0.7484374999999996        },        {          "name": "B1",          "midi": 35,          "time": 14.25,          "velocity": 0.6299212598425197,          "duration": 0.7484374999999996        },        {          "name": "B1",          "midi": 35,          "time": 15,          "velocity": 0.6299212598425197,          "duration": 0.7484374999999996        },        {          "name": "B1",          "midi": 35,          "time": 15.75,          "velocity": 0.6299212598425197,          "duration": 0.7484375000000014        },        {          "name": "B1",          "midi": 35,          "time": 16.5,          "velocity": 0.6299212598425197,          "duration": 0.7484375000000014        },        {          "name": "B1",          "midi": 35,          "time": 17.25,          "velocity": 0.6299212598425197,          "duration": 0.7484375000000014        }      ],      "controlChanges": {        "7": [          {            "number": 7,            "time": 0,            "value": 0.7874015748031497          }        ],        "10": [          {            "number": 10,            "time": 0,            "value": 0.5039370078740157          }        ],        "91": [          {            "number": 91,            "time": 0,            "value": 0          }        ],        "93": [          {            "number": 93,            "time": 0,            "value": 0          }        ],        "121": [          {            "number": 121,            "time": 0,            "value": 0          }        ]      }    }  ]}