{  "header": {    "PPQ": 480,    "timeSignature": [      6,      8    ],    "bpm": 40  },  "startTime": 0,  "duration": 35.996875,  "tracks": [    {      "startTime": 0,      "duration": 35.996875,      "length": 29,      "id": 0,      "instrumentNumber": 0,      "instrument": "standard kit",      "instrumentFamily": "drums",      "channelNumber": 9,      "isPercussion": true,      "notes": [        {          "name": "C#2",          "midi": 37,          "time": 0,          "velocity": 0.6299212598425197,          "duration": 0.746875        },        {          "name": "C#2",          "midi": 37,          "time": 0.75,          "velocity": 0.6299212598425197,          "duration": 0.746875        },        {          "name": "C#2",          "midi": 37,          "time": 1.5,          "velocity": 0.6299212598425197,          "duration": 1.4968750000000002        },        {          "name": "B1",          "midi": 35,          "time": 2.25,          "velocity": 0.6299212598425197,          "duration": 0.7468750000000002        },        {          "name": "B1",          "midi": 35,          "time": 3,          "velocity": 0.6299212598425197,          "duration": 1.4968750000000002        },        {          "name": "D2",          "midi": 38,          "time": 4.5,          "velocity": 0.6299212598425197,          "duration": 1.4968750000000002        },        {          "name": "D2",          "midi": 38,          "time": 6,          "velocity": 0.6299212598425197,          "duration": 1.4968750000000002        },        {          "name": "D2",          "midi": 38,          "time": 7.5,          "velocity": 0.6299212598425197,          "duration": 1.4968749999999993        },        {          "name": "B1",          "midi": 35,          "time": 9,          "velocity": 0.6299212598425197,          "duration": 1.4968749999999993        },        {          "name": "B1",          "midi": 35,          "time": 10.5,          "velocity": 0.6299212598425197,          "duration": 1.4968749999999993        },        {          "name": "B1",          "midi": 35,          "time": 12,          "velocity": 0.6299212598425197,          "duration": 1.4968749999999993        },        {          "name": "D2",          "midi": 38,          "time": 13.5,          "velocity": 0.6299212598425197,          "duration": 1.4968749999999993        },        {          "name": "B1",          "midi": 35,          "time": 13.5,          "velocity": 0.6299212598425197,          "duration": 1.4968749999999993        },        {          "name": "D2",          "midi": 38,          "time": 15,          "velocity": 0.6299212598425197,          "duration": 1.4968749999999993        },        {          "name": "B1",          "midi": 35,          "time": 15,          "velocity": 0.6299212598425197,          "duration": 1.4968749999999993        },        {          "name": "D2",          "midi": 38,          "time": 16.5,          "velocity": 0.6299212598425197,          "duration": 1.4968749999999993        },        {          "name": "D2",          "midi": 38,          "time": 18,          "velocity": 0.6299212598425197,          "duration": 1.4968749999999993        },        {          "name": "B1",          "midi": 35,          "time": 18,          "velocity": 0.6299212598425197,          "duration": 1.4968749999999993        },        {          "name": "D2",          "midi": 38,          "time": 19.5,          "velocity": 0.6299212598425197,          "duration": 1.4968749999999993        },        {          "name": "B1",          "midi": 35,          "time": 19.5,          "velocity": 0.6299212598425197,          "duration": 1.4968749999999993        },        {          "name": "B1",          "midi": 35,          "time": 21,          "velocity": 0.6299212598425197,          "duration": 1.4968749999999993        },        {          "name": "B1",          "midi": 35,          "time": 22.5,          "velocity": 0.6299212598425197,          "duration": 1.4968749999999993        },        {          "name": "B1",          "midi": 35,          "time": 24,          "velocity": 0.6299212598425197,          "duration": 1.4968749999999993        },        {          "name": "B1",          "midi": 35,          "time": 27,          "velocity": 0.6299212598425197,          "duration": 1.4968749999999993        },        {          "name": "B1",          "midi": 35,          "time": 28.5,          "velocity": 0.6299212598425197,          "duration": 1.4968749999999993        },        {          "name": "B1",          "midi": 35,          "time": 30,          "velocity": 0.6299212598425197,          "duration": 1.4968749999999993        },        {          "name": "B1",          "midi": 35,          "time": 31.5,          "velocity": 0.6299212598425197,          "duration": 1.4968750000000028        },        {          "name": "B1",          "midi": 35,          "time": 33,          "velocity": 0.6299212598425197,          "duration": 1.4968750000000028        },        {          "name": "B1",          "midi": 35,          "time": 34.5,          "velocity": 0.6299212598425197,          "duration": 1.4968750000000028        }      ],      "controlChanges": {        "7": [          {            "number": 7,            "time": 0,            "value": 0.7874015748031497          }        ],        "10": [          {            "number": 10,            "time": 0,            "value": 0.5039370078740157          }        ],        "91": [          {            "number": 91,            "time": 0,            "value": 0          }        ],        "93": [          {            "number": 93,            "time": 0,            "value": 0          }        ],        "121": [          {            "number": 121,            "time": 0,            "value": 0          }        ]      }    }  ]}