{  "header": {    "PPQ": 480,    "timeSignature": [      4,      4    ],    "bpm": 79.99978666723555  },  "startTime": 0,  "duration": 21.74849549583335,  "tracks": [    {      "startTime": 0,      "duration": 21.74849549583335,      "length": 43,      "id": 0,      "instrumentNumber": 9,      "instrumentFamily": "drums",      "channelNumber": 9,      "isPercussion": true,      "notes": [        {          "name": "C#2",          "midi": 37,          "time": 0,          "velocity": 0.6299212598425197,          "duration": 0.7484394958333332        },        {          "name": "C#2",          "midi": 37,          "time": 0.750002,          "velocity": 0.6299212598425197,          "duration": 0.7484394958333332        },        {          "name": "C#2",          "midi": 37,          "time": 1.500004,          "velocity": 0.6299212598425197,          "duration": 0.7484394958333331        },        {          "name": "C#2",          "midi": 37,          "time": 2.2500059999999995,          "velocity": 0.6299212598425197,          "duration": 0.7484394958333334        },        {          "name": "B1",          "midi": 35,          "time": 3.0000079999999993,          "velocity": 0.6299212598425197,          "duration": 0.7484394958333334        },        {          "name": "F#2",          "midi": 42,          "time": 3.0000079999999993,          "velocity": 0.6299212598425197,          "duration": 0.7484394958333334        },        {          "name": "F#2",          "midi": 42,          "time": 3.750009999999999,          "velocity": 0.6299212598425197,          "duration": 0.7484394958333334        },        {          "name": "D2",          "midi": 38,          "time": 4.500011999999999,          "velocity": 0.6299212598425197,          "duration": 0.7484394958333329        },        {          "name": "F#2",          "midi": 42,          "time": 4.500011999999999,          "velocity": 0.6299212598425197,          "duration": 0.7484394958333329        },        {          "name": "F#2",          "midi": 42,          "time": 5.250013999999998,          "velocity": 0.6299212598425197,          "duration": 0.7484394958333329        },        {          "name": "B1",          "midi": 35,          "time": 6.000015999999998,          "velocity": 0.6299212598425197,          "duration": 0.7484394958333329        },        {          "name": "F#2",          "midi": 42,          "time": 6.000015999999998,          "velocity": 0.6299212598425197,          "duration": 0.7484394958333329        },        {          "name": "F#2",          "midi": 42,          "time": 6.750017999999997,          "velocity": 0.6299212598425197,          "duration": 0.7484394958333329        },        {          "name": "D2",          "midi": 38,          "time": 7.500019999999997,          "velocity": 0.6299212598425197,          "duration": 0.7484394958333338        },        {          "name": "F#2",          "midi": 42,          "time": 7.500019999999997,          "velocity": 0.6299212598425197,          "duration": 0.7484394958333338        },        {          "name": "F#2",          "midi": 42,          "time": 8.250021999999998,          "velocity": 0.6299212598425197,          "duration": 0.7484394958333329        },        {          "name": "D2",          "midi": 38,          "time": 9.000023999999998,          "velocity": 0.6299212598425197,          "duration": 0.7484394958333329        },        {          "name": "D2",          "midi": 38,          "time": 9.750025999999998,          "velocity": 0.6299212598425197,          "duration": 0.7484394958333329        },        {          "name": "C3",          "midi": 48,          "time": 10.500027999999999,          "velocity": 0.6299212598425197,          "duration": 0.7484394958333329        },        {          "name": "A2",          "midi": 45,          "time": 11.250029999999999,          "velocity": 0.6299212598425197,          "duration": 0.7484394958333329        },        {          "name": "B1",          "midi": 35,          "time": 12.000032,          "velocity": 0.6299212598425197,          "duration": 0.7484394958333329        },        {          "name": "F#2",          "midi": 42,          "time": 12.000032,          "velocity": 0.6299212598425197,          "duration": 0.7484394958333329        },        {          "name": "F#2",          "midi": 42,          "time": 12.750034,          "velocity": 0.6299212598425197,          "duration": 0.7484394958333329        },        {          "name": "D2",          "midi": 38,          "time": 13.500036,          "velocity": 0.6299212598425197,          "duration": 0.7484394958333329        },        {          "name": "F#2",          "midi": 42,          "time": 13.500036,          "velocity": 0.6299212598425197,          "duration": 0.7484394958333329        },        {          "name": "F#2",          "midi": 42,          "time": 14.250038,          "velocity": 0.6299212598425197,          "duration": 0.7484394958333329        },        {          "name": "B1",          "midi": 35,          "time": 15.00004,          "velocity": 0.6299212598425197,          "duration": 0.7484394958333329        },        {          "name": "F#2",          "midi": 42,          "time": 15.00004,          "velocity": 0.6299212598425197,          "duration": 0.7484394958333329        },        {          "name": "B1",          "midi": 35,          "time": 15.750042,          "velocity": 0.6299212598425197,          "duration": 0.7484394958333347        },        {          "name": "F#2",          "midi": 42,          "time": 15.750042,          "velocity": 0.6299212598425197,          "duration": 0.7484394958333347        },        {          "name": "D2",          "midi": 38,          "time": 16.500044000000003,          "velocity": 0.6299212598425197,          "duration": 0.7484394958333347        },        {          "name": "F#2",          "midi": 42,          "time": 16.500044000000003,          "velocity": 0.6299212598425197,          "duration": 0.7484394958333347        },        {          "name": "F#2",          "midi": 42,          "time": 17.250046000000005,          "velocity": 0.6299212598425197,          "duration": 0.7484394958333347        },        {          "name": "D2",          "midi": 38,          "time": 18.000048000000007,          "velocity": 0.6299212598425197,          "duration": 0.37343849583333366        },        {          "name": "D2",          "midi": 38,          "time": 18.375049000000008,          "velocity": 0.6299212598425197,          "duration": 0.37343849583333366        },        {          "name": "D2",          "midi": 38,          "time": 18.75005000000001,          "velocity": 0.6299212598425197,          "duration": 0.37343849583333366        },        {          "name": "D2",          "midi": 38,          "time": 19.12505100000001,          "velocity": 0.6299212598425197,          "duration": 0.37343849583333366        },        {          "name": "C3",          "midi": 48,          "time": 19.50005200000001,          "velocity": 0.6299212598425197,          "duration": 0.37343849583333366        },        {          "name": "C3",          "midi": 48,          "time": 19.875053000000012,          "velocity": 0.6299212598425197,          "duration": 0.37343849583333366        },        {          "name": "A2",          "midi": 45,          "time": 20.250054000000013,          "velocity": 0.6299212598425197,          "duration": 0.37343849583333366        },        {          "name": "A2",          "midi": 45,          "time": 20.625055000000014,          "velocity": 0.6299212598425197,          "duration": 0.37343849583333366        },        {          "name": "B1",          "midi": 35,          "time": 21.000056000000015,          "velocity": 0.6299212598425197,          "duration": 0.7484394958333347        },        {          "name": "C#3",          "midi": 49,          "time": 21.000056000000015,          "velocity": 0.6299212598425197,          "duration": 0.7484394958333347        }      ],      "controlChanges": {        "7": [          {            "number": 7,            "time": 0,            "value": 0.7874015748031497          }        ],        "10": [          {            "number": 10,            "time": 0,            "value": 0.5039370078740157          }        ],        "91": [          {            "number": 91,            "time": 0,            "value": 0          }        ],        "93": [          {            "number": 93,            "time": 0,            "value": 0          }        ],        "121": [          {            "number": 121,            "time": 0,            "value": 0          }        ]      }    }  ]}