{
  "header": {
    "PPQ": 480,
    "timeSignature": [
      4,
      4
    ],
    "bpm": 75
  },
  "startTime": 0,
  "duration": 179.19833333333253,
  "tracks": [
    {
      "startTime": 0,
      "duration": 179.19833333333253,
      "length": 592,
      "id": 0,
      "instrumentNumber": 9,
      "instrumentFamily": "drums",
      "channelNumber": 9,
      "isPercussion": true,
      "notes": [
        {
          "name": "B1",
          "midi": 35,
          "time": 0,
          "velocity": 0.6299212598425197,
          "duration": 0.3983333333333334
        },
        {
          "name": "F#2",
          "midi": 42,
          "time": 0,
          "velocity": 0.6299212598425197,
          "duration": 0.3983333333333334
        },
        {
          "name": "F#2",
          "midi": 42,
          "time": 0.4,
          "velocity": 0.6299212598425197,
          "duration": 0.3983333333333333
        },
        {
          "name": "E2",
          "midi": 40,
          "time": 0.8,
          "velocity": 0.6299212598425197,
          "duration": 0.39833333333333343
        },
        {
          "name": "F#2",
          "midi": 42,
          "time": 0.8,
          "velocity": 0.6299212598425197,
          "duration": 0.39833333333333343
        },
        {
          "name": "F#2",
          "midi": 42,
          "time": 1.2000000000000002,
          "velocity": 0.6299212598425197,
          "duration": 0.39833333333333343
        },
        {
          "name": "B1",
          "midi": 35,
          "time": 1.6000000000000003,
          "velocity": 0.6299212598425197,
          "duration": 0.39833333333333343
        },
        {
          "name": "F#2",
          "midi": 42,
          "time": 1.6000000000000003,
          "velocity": 0.6299212598425197,
          "duration": 0.39833333333333343
        },
        {
          "name": "F#2",
          "midi": 42,
          "time": 2.0000000000000004,
          "velocity": 0.6299212598425197,
          "duration": 0.39833333333333343
        },
        {
          "name": "E2",
          "midi": 40,
          "time": 2.4000000000000004,
          "velocity": 0.6299212598425197,
          "duration": 0.39833333333333343
        },
        {
          "name": "F#2",
          "midi": 42,
          "time": 2.4000000000000004,
          "velocity": 0.6299212598425197,
          "duration": 0.39833333333333343
        },
        {
          "name": "F#2",
          "midi": 42,
          "time": 2.8000000000000003,
          "velocity": 0.6299212598425197,
          "duration": 0.39833333333333343
        },
        {
          "name": "E2",
          "midi": 40,
          "time": 3.2,
          "velocity": 0.6299212598425197,
          "duration": 0.39833333333333343
        },
        {
          "name": "E2",
          "midi": 40,
          "time": 3.6,
          "velocity": 0.6299212598425197,
          "duration": 0.39833333333333343
        },
        {
          "name": "D3",
          "midi": 50,
          "time": 4,
          "velocity": 0.6299212598425197,
          "duration": 0.39833333333333343
        },
        {
          "name": "D3",
          "midi": 50,
          "time": 4.4,
          "velocity": 0.6299212598425197,
          "duration": 0.39833333333333343
        },
        {
          "name": "C3",
          "midi": 48,
          "time": 4.800000000000001,
          "velocity": 0.6299212598425197,
          "duration": 0.39833333333333343
        },
        {
          "name": "C3",
          "midi": 48,
          "time": 5.200000000000001,
          "velocity": 0.6299212598425197,
          "duration": 0.39833333333333343
        },
        {
          "name": "B2",
          "midi": 47,
          "time": 5.600000000000001,
          "velocity": 0.6299212598425197,
          "duration": 0.39833333333333343
        },
        {
          "name": "B2",
          "midi": 47,
          "time": 6.000000000000002,
          "velocity": 0.6299212598425197,
          "duration": 0.39833333333333343
        },
        {
          "name": "B1",
          "midi": 35,
          "time": 6.400000000000002,
          "velocity": 0.6299212598425197,
          "duration": 0.39833333333333343
        },
        {
          "name": "D#3",
          "midi": 51,
          "time": 6.400000000000002,
          "velocity": 0.6299212598425197,
          "duration": 0.39833333333333343
        },
        {
          "name": "D#3",
          "midi": 51,
          "time": 6.8000000000000025,
          "velocity": 0.6299212598425197,
          "duration": 0.39833333333333343
        },
        {
          "name": "E2",
          "midi": 40,
          "time": 7.200000000000003,
          "velocity": 0.6299212598425197,
          "duration": 0.39833333333333343
        },
        {
          "name": "D#3",
          "midi": 51,
          "time": 7.200000000000003,
          "velocity": 0.6299212598425197,
          "duration": 0.39833333333333343
        },
        {
          "name": "D#3",
          "midi": 51,
          "time": 7.600000000000003,
          "velocity": 0.6299212598425197,
          "duration": 0.39833333333333343
        },
        {
          "name": "B1",
          "midi": 35,
          "time": 8.000000000000004,
          "velocity": 0.6299212598425197,
          "duration": 0.39833333333333343
        },
        {
          "name": "D#3",
          "midi": 51,
          "time": 8.000000000000004,
          "velocity": 0.6299212598425197,
          "duration": 0.39833333333333343
        },
        {
          "name": "D#3",
          "midi": 51,
          "time": 8.400000000000004,
          "velocity": 0.6299212598425197,
          "duration": 0.39833333333333343
        },
        {
          "name": "E2",
          "midi": 40,
          "time": 8.800000000000004,
          "velocity": 0.6299212598425197,
          "duration": 0.39833333333333343
        },
        {
          "name": "D#3",
          "midi": 51,
          "time": 8.800000000000004,
          "velocity": 0.6299212598425197,
          "duration": 0.39833333333333343
        },
        {
          "name": "D#3",
          "midi": 51,
          "time": 9.200000000000005,
          "velocity": 0.6299212598425197,
          "duration": 0.39833333333333343
        },
        {
          "name": "E2",
          "midi": 40,
          "time": 9.600000000000005,
          "velocity": 0.6299212598425197,
          "duration": 0.39833333333333343
        },
        {
          "name": "E2",
          "midi": 40,
          "time": 10.000000000000005,
          "velocity": 0.6299212598425197,
          "duration": 0.39833333333333343
        },
        {
          "name": "E2",
          "midi": 40,
          "time": 10.400000000000006,
          "velocity": 0.6299212598425197,
          "duration": 0.39833333333333343
        },
        {
          "name": "E2",
          "midi": 40,
          "time": 10.800000000000006,
          "velocity": 0.6299212598425197,
          "duration": 0.39833333333333343
        },
        {
          "name": "E2",
          "midi": 40,
          "time": 11.200000000000006,
          "velocity": 0.6299212598425197,
          "duration": 0.39833333333333343
        },
        {
          "name": "E2",
          "midi": 40,
          "time": 11.600000000000007,
          "velocity": 0.6299212598425197,
          "duration": 0.39833333333333343
        },
        {
          "name": "E2",
          "midi": 40,
          "time": 12.000000000000007,
          "velocity": 0.6299212598425197,
          "duration": 0.39833333333333343
        },
        {
          "name": "E2",
          "midi": 40,
          "time": 12.400000000000007,
          "velocity": 0.6299212598425197,
          "duration": 0.39833333333333343
        },
        {
          "name": "B1",
          "midi": 35,
          "time": 12.800000000000008,
          "velocity": 0.6299212598425197,
          "duration": 0.39833333333333343
        },
        {
          "name": "F#2",
          "midi": 42,
          "time": 12.800000000000008,
          "velocity": 0.6299212598425197,
          "duration": 0.39833333333333343
        },
        {
          "name": "F#2",
          "midi": 42,
          "time": 13.200000000000008,
          "velocity": 0.6299212598425197,
          "duration": 0.39833333333333343
        },
        {
          "name": "E2",
          "midi": 40,
          "time": 13.600000000000009,
          "velocity": 0.6299212598425197,
          "duration": 0.39833333333333343
        },
        {
          "name": "F#2",
          "midi": 42,
          "time": 13.600000000000009,
          "velocity": 0.6299212598425197,
          "duration": 0.39833333333333343
        },
        {
          "name": "F#2",
          "midi": 42,
          "time": 14.000000000000009,
          "velocity": 0.6299212598425197,
          "duration": 0.39833333333333343
        },
        {
          "name": "B1",
          "midi": 35,
          "time": 14.40000000000001,
          "velocity": 0.6299212598425197,
          "duration": 0.39833333333333343
        },
        {
          "name": "F#2",
          "midi": 42,
          "time": 14.40000000000001,
          "velocity": 0.6299212598425197,
          "duration": 0.39833333333333343
        },
        {
          "name": "F#2",
          "midi": 42,
          "time": 14.80000000000001,
          "velocity": 0.6299212598425197,
          "duration": 0.39833333333333343
        },
        {
          "name": "E2",
          "midi": 40,
          "time": 15.20000000000001,
          "velocity": 0.6299212598425197,
          "duration": 0.39833333333333343
        },
        {
          "name": "F#2",
          "midi": 42,
          "time": 15.20000000000001,
          "velocity": 0.6299212598425197,
          "duration": 0.39833333333333343
        },
        {
          "name": "F#2",
          "midi": 42,
          "time": 15.60000000000001,
          "velocity": 0.6299212598425197,
          "duration": 0.39833333333333343
        },
        {
          "name": "E2",
          "midi": 40,
          "time": 16.00000000000001,
          "velocity": 0.6299212598425197,
          "duration": 0.39833333333333343
        },
        {
          "name": "E2",
          "midi": 40,
          "time": 16.40000000000001,
          "velocity": 0.6299212598425197,
          "duration": 0.39833333333333343
        },
        {
          "name": "D3",
          "midi": 50,
          "time": 16.800000000000008,
          "velocity": 0.6299212598425197,
          "duration": 0.39833333333333343
        },
        {
          "name": "D3",
          "midi": 50,
          "time": 17.200000000000006,
          "velocity": 0.6299212598425197,
          "duration": 0.39833333333333343
        },
        {
          "name": "C3",
          "midi": 48,
          "time": 17.600000000000005,
          "velocity": 0.6299212598425197,
          "duration": 0.39833333333333343
        },
        {
          "name": "C3",
          "midi": 48,
          "time": 18.000000000000004,
          "velocity": 0.6299212598425197,
          "duration": 0.39833333333333343
        },
        {
          "name": "B2",
          "midi": 47,
          "time": 18.400000000000002,
          "velocity": 0.6299212598425197,
          "duration": 0.39833333333333343
        },
        {
          "name": "B2",
          "midi": 47,
          "time": 18.8,
          "velocity": 0.6299212598425197,
          "duration": 0.39833333333333343
        },
        {
          "name": "B1",
          "midi": 35,
          "time": 19.2,
          "velocity": 0.6299212598425197,
          "duration": 0.39833333333333343
        },
        {
          "name": "D#3",
          "midi": 51,
          "time": 19.2,
          "velocity": 0.6299212598425197,
          "duration": 0.39833333333333343
        },
        {
          "name": "D#3",
          "midi": 51,
          "time": 19.599999999999998,
          "velocity": 0.6299212598425197,
          "duration": 0.39833333333333343
        },
        {
          "name": "E2",
          "midi": 40,
          "time": 19.999999999999996,
          "velocity": 0.6299212598425197,
          "duration": 0.39833333333333343
        },
        {
          "name": "D#3",
          "midi": 51,
          "time": 19.999999999999996,
          "velocity": 0.6299212598425197,
          "duration": 0.39833333333333343
        },
        {
          "name": "D#3",
          "midi": 51,
          "time": 20.399999999999995,
          "velocity": 0.6299212598425197,
          "duration": 0.39833333333333343
        },
        {
          "name": "B1",
          "midi": 35,
          "time": 20.799999999999994,
          "velocity": 0.6299212598425197,
          "duration": 0.39833333333333343
        },
        {
          "name": "D#3",
          "midi": 51,
          "time": 20.799999999999994,
          "velocity": 0.6299212598425197,
          "duration": 0.39833333333333343
        },
        {
          "name": "D#3",
          "midi": 51,
          "time": 21.199999999999992,
          "velocity": 0.6299212598425197,
          "duration": 0.39833333333333343
        },
        {
          "name": "E2",
          "midi": 40,
          "time": 21.59999999999999,
          "velocity": 0.6299212598425197,
          "duration": 0.39833333333333343
        },
        {
          "name": "D#3",
          "midi": 51,
          "time": 21.59999999999999,
          "velocity": 0.6299212598425197,
          "duration": 0.39833333333333343
        },
        {
          "name": "D#3",
          "midi": 51,
          "time": 21.99999999999999,
          "velocity": 0.6299212598425197,
          "duration": 0.39833333333333343
        },
        {
          "name": "E2",
          "midi": 40,
          "time": 22.399999999999988,
          "velocity": 0.6299212598425197,
          "duration": 0.39833333333333343
        },
        {
          "name": "E2",
          "midi": 40,
          "time": 22.799999999999986,
          "velocity": 0.6299212598425197,
          "duration": 0.39833333333333343
        },
        {
          "name": "E2",
          "midi": 40,
          "time": 23.199999999999985,
          "velocity": 0.6299212598425197,
          "duration": 0.39833333333333343
        },
        {
          "name": "E2",
          "midi": 40,
          "time": 23.599999999999984,
          "velocity": 0.6299212598425197,
          "duration": 0.39833333333333343
        },
        {
          "name": "E2",
          "midi": 40,
          "time": 23.999999999999982,
          "velocity": 0.6299212598425197,
          "duration": 0.39833333333333343
        },
        {
          "name": "E2",
          "midi": 40,
          "time": 24.39999999999998,
          "velocity": 0.6299212598425197,
          "duration": 0.39833333333333343
        },
        {
          "name": "E2",
          "midi": 40,
          "time": 24.79999999999998,
          "velocity": 0.6299212598425197,
          "duration": 0.39833333333333343
        },
        {
          "name": "E2",
          "midi": 40,
          "time": 25.199999999999978,
          "velocity": 0.6299212598425197,
          "duration": 0.39833333333333343
        },
        {
          "name": "B1",
          "midi": 35,
          "time": 25.599999999999977,
          "velocity": 0.6299212598425197,
          "duration": 0.39833333333333343
        },
        {
          "name": "F#2",
          "midi": 42,
          "time": 25.599999999999977,
          "velocity": 0.6299212598425197,
          "duration": 0.39833333333333343
        },
        {
          "name": "F#2",
          "midi": 42,
          "time": 25.999999999999975,
          "velocity": 0.6299212598425197,
          "duration": 0.39833333333333343
        },
        {
          "name": "E2",
          "midi": 40,
          "time": 26.399999999999974,
          "velocity": 0.6299212598425197,
          "duration": 0.39833333333333343
        },
        {
          "name": "F#2",
          "midi": 42,
          "time": 26.399999999999974,
          "velocity": 0.6299212598425197,
          "duration": 0.39833333333333343
        },
        {
          "name": "F#2",
          "midi": 42,
          "time": 26.799999999999972,
          "velocity": 0.6299212598425197,
          "duration": 0.39833333333333343
        },
        {
          "name": "B1",
          "midi": 35,
          "time": 27.19999999999997,
          "velocity": 0.6299212598425197,
          "duration": 0.39833333333333343
        },
        {
          "name": "F#2",
          "midi": 42,
          "time": 27.19999999999997,
          "velocity": 0.6299212598425197,
          "duration": 0.39833333333333343
        },
        {
          "name": "B1",
          "midi": 35,
          "time": 27.59999999999997,
          "velocity": 0.6299212598425197,
          "duration": 0.39833333333333343
        },
        {
          "name": "F#2",
          "midi": 42,
          "time": 27.59999999999997,
          "velocity": 0.6299212598425197,
          "duration": 0.39833333333333343
        },
        {
          "name": "E2",
          "midi": 40,
          "time": 27.999999999999968,
          "velocity": 0.6299212598425197,
          "duration": 0.39833333333333343
        },
        {
          "name": "F#2",
          "midi": 42,
          "time": 27.999999999999968,
          "velocity": 0.6299212598425197,
          "duration": 0.39833333333333343
        },
        {
          "name": "F#2",
          "midi": 42,
          "time": 28.399999999999967,
          "velocity": 0.6299212598425197,
          "duration": 0.39833333333333343
        },
        {
          "name": "E2",
          "midi": 40,
          "time": 28.799999999999965,
          "velocity": 0.6299212598425197,
          "duration": 0.39833333333333343
        },
        {
          "name": "E2",
          "midi": 40,
          "time": 29.199999999999964,
          "velocity": 0.6299212598425197,
          "duration": 0.39833333333333343
        },
        {
          "name": "D3",
          "midi": 50,
          "time": 29.599999999999962,
          "velocity": 0.6299212598425197,
          "duration": 0.39833333333333343
        },
        {
          "name": "D3",
          "midi": 50,
          "time": 29.99999999999996,
          "velocity": 0.6299212598425197,
          "duration": 0.39833333333333343
        },
        {
          "name": "E2",
          "midi": 40,
          "time": 30.39999999999996,
          "velocity": 0.6299212598425197,
          "duration": 0.39833333333333343
        },
        {
          "name": "E2",
          "midi": 40,
          "time": 30.799999999999958,
          "velocity": 0.6299212598425197,
          "duration": 0.39833333333333343
        },
        {
          "name": "C3",
          "midi": 48,
          "time": 31.199999999999957,
          "velocity": 0.6299212598425197,
          "duration": 0.39833333333333343
        },
        {
          "name": "C3",
          "midi": 48,
          "time": 31.599999999999955,
          "velocity": 0.6299212598425197,
          "duration": 0.39833333333333343
        },
        {
          "name": "B1",
          "midi": 35,
          "time": 31.999999999999954,
          "velocity": 0.6299212598425197,
          "duration": 0.3983333333333299
        },
        {
          "name": "D#3",
          "midi": 51,
          "time": 31.999999999999954,
          "velocity": 0.6299212598425197,
          "duration": 0.3983333333333299
        },
        {
          "name": "D#3",
          "midi": 51,
          "time": 32.39999999999995,
          "velocity": 0.6299212598425197,
          "duration": 0.39833333333333343
        },
        {
          "name": "E2",
          "midi": 40,
          "time": 32.79999999999995,
          "velocity": 0.6299212598425197,
          "duration": 0.39833333333333343
        },
        {
          "name": "D#3",
          "midi": 51,
          "time": 32.79999999999995,
          "velocity": 0.6299212598425197,
          "duration": 0.39833333333333343
        },
        {
          "name": "D#3",
          "midi": 51,
          "time": 33.199999999999946,
          "velocity": 0.6299212598425197,
          "duration": 0.39833333333333343
        },
        {
          "name": "B1",
          "midi": 35,
          "time": 33.599999999999945,
          "velocity": 0.6299212598425197,
          "duration": 0.39833333333333343
        },
        {
          "name": "D#3",
          "midi": 51,
          "time": 33.599999999999945,
          "velocity": 0.6299212598425197,
          "duration": 0.39833333333333343
        },
        {
          "name": "B1",
          "midi": 35,
          "time": 33.99999999999994,
          "velocity": 0.6299212598425197,
          "duration": 0.39833333333333343
        },
        {
          "name": "D#3",
          "midi": 51,
          "time": 33.99999999999994,
          "velocity": 0.6299212598425197,
          "duration": 0.39833333333333343
        },
        {
          "name": "E2",
          "midi": 40,
          "time": 34.39999999999994,
          "velocity": 0.6299212598425197,
          "duration": 0.39833333333333343
        },
        {
          "name": "D#3",
          "midi": 51,
          "time": 34.39999999999994,
          "velocity": 0.6299212598425197,
          "duration": 0.39833333333333343
        },
        {
          "name": "D#3",
          "midi": 51,
          "time": 34.79999999999994,
          "velocity": 0.6299212598425197,
          "duration": 0.39833333333333343
        },
        {
          "name": "E2",
          "midi": 40,
          "time": 35.19999999999994,
          "velocity": 0.6299212598425197,
          "duration": 0.39833333333333343
        },
        {
          "name": "E2",
          "midi": 40,
          "time": 35.59999999999994,
          "velocity": 0.6299212598425197,
          "duration": 0.39833333333333343
        },
        {
          "name": "E2",
          "midi": 40,
          "time": 35.999999999999936,
          "velocity": 0.6299212598425197,
          "duration": 0.39833333333333343
        },
        {
          "name": "E2",
          "midi": 40,
          "time": 36.399999999999935,
          "velocity": 0.6299212598425197,
          "duration": 0.39833333333333343
        },
        {
          "name": "D#3",
          "midi": 51,
          "time": 36.79999999999993,
          "velocity": 0.6299212598425197,
          "duration": 0.39833333333333343
        },
        {
          "name": "E2",
          "midi": 40,
          "time": 37.19999999999993,
          "velocity": 0.6299212598425197,
          "duration": 0.39833333333333343
        },
        {
          "name": "E2",
          "midi": 40,
          "time": 37.59999999999993,
          "velocity": 0.6299212598425197,
          "duration": 0.39833333333333343
        },
        {
          "name": "E2",
          "midi": 40,
          "time": 37.99999999999993,
          "velocity": 0.6299212598425197,
          "duration": 0.39833333333333343
        },
        {
          "name": "B1",
          "midi": 35,
          "time": 38.39999999999993,
          "velocity": 0.6299212598425197,
          "duration": 0.39833333333333343
        },
        {
          "name": "F#2",
          "midi": 42,
          "time": 38.39999999999993,
          "velocity": 0.6299212598425197,
          "duration": 0.39833333333333343
        },
        {
          "name": "F#2",
          "midi": 42,
          "time": 38.799999999999926,
          "velocity": 0.6299212598425197,
          "duration": 0.39833333333333343
        },
        {
          "name": "E2",
          "midi": 40,
          "time": 39.199999999999925,
          "velocity": 0.6299212598425197,
          "duration": 0.39833333333333343
        },
        {
          "name": "F#2",
          "midi": 42,
          "time": 39.199999999999925,
          "velocity": 0.6299212598425197,
          "duration": 0.39833333333333343
        },
        {
          "name": "F#2",
          "midi": 42,
          "time": 39.59999999999992,
          "velocity": 0.6299212598425197,
          "duration": 0.39833333333333343
        },
        {
          "name": "B1",
          "midi": 35,
          "time": 39.99999999999992,
          "velocity": 0.6299212598425197,
          "duration": 0.39833333333333343
        },
        {
          "name": "F#2",
          "midi": 42,
          "time": 39.99999999999992,
          "velocity": 0.6299212598425197,
          "duration": 0.39833333333333343
        },
        {
          "name": "B1",
          "midi": 35,
          "time": 40.39999999999992,
          "velocity": 0.6299212598425197,
          "duration": 0.39833333333333343
        },
        {
          "name": "F#2",
          "midi": 42,
          "time": 40.39999999999992,
          "velocity": 0.6299212598425197,
          "duration": 0.39833333333333343
        },
        {
          "name": "E2",
          "midi": 40,
          "time": 40.79999999999992,
          "velocity": 0.6299212598425197,
          "duration": 0.39833333333333343
        },
        {
          "name": "F#2",
          "midi": 42,
          "time": 40.79999999999992,
          "velocity": 0.6299212598425197,
          "duration": 0.39833333333333343
        },
        {
          "name": "F#2",
          "midi": 42,
          "time": 41.19999999999992,
          "velocity": 0.6299212598425197,
          "duration": 0.39833333333333343
        },
        {
          "name": "E2",
          "midi": 40,
          "time": 41.599999999999916,
          "velocity": 0.6299212598425197,
          "duration": 0.39833333333333343
        },
        {
          "name": "E2",
          "midi": 40,
          "time": 41.999999999999915,
          "velocity": 0.6299212598425197,
          "duration": 0.39833333333333343
        },
        {
          "name": "D3",
          "midi": 50,
          "time": 42.39999999999991,
          "velocity": 0.6299212598425197,
          "duration": 0.39833333333333343
        },
        {
          "name": "D3",
          "midi": 50,
          "time": 42.79999999999991,
          "velocity": 0.6299212598425197,
          "duration": 0.39833333333333343
        },
        {
          "name": "E2",
          "midi": 40,
          "time": 43.19999999999991,
          "velocity": 0.6299212598425197,
          "duration": 0.39833333333333343
        },
        {
          "name": "E2",
          "midi": 40,
          "time": 43.59999999999991,
          "velocity": 0.6299212598425197,
          "duration": 0.39833333333333343
        },
        {
          "name": "C3",
          "midi": 48,
          "time": 43.99999999999991,
          "velocity": 0.6299212598425197,
          "duration": 0.39833333333333343
        },
        {
          "name": "C3",
          "midi": 48,
          "time": 44.399999999999906,
          "velocity": 0.6299212598425197,
          "duration": 0.39833333333333343
        },
        {
          "name": "B1",
          "midi": 35,
          "time": 44.799999999999905,
          "velocity": 0.6299212598425197,
          "duration": 0.39833333333333343
        },
        {
          "name": "D#3",
          "midi": 51,
          "time": 44.799999999999905,
          "velocity": 0.6299212598425197,
          "duration": 0.39833333333333343
        },
        {
          "name": "D#3",
          "midi": 51,
          "time": 45.1999999999999,
          "velocity": 0.6299212598425197,
          "duration": 0.39833333333333343
        },
        {
          "name": "E2",
          "midi": 40,
          "time": 45.5999999999999,
          "velocity": 0.6299212598425197,
          "duration": 0.39833333333333343
        },
        {
          "name": "D#3",
          "midi": 51,
          "time": 45.5999999999999,
          "velocity": 0.6299212598425197,
          "duration": 0.39833333333333343
        },
        {
          "name": "D#3",
          "midi": 51,
          "time": 45.9999999999999,
          "velocity": 0.6299212598425197,
          "duration": 0.39833333333333343
        },
        {
          "name": "B1",
          "midi": 35,
          "time": 46.3999999999999,
          "velocity": 0.6299212598425197,
          "duration": 0.39833333333333343
        },
        {
          "name": "D#3",
          "midi": 51,
          "time": 46.3999999999999,
          "velocity": 0.6299212598425197,
          "duration": 0.39833333333333343
        },
        {
          "name": "B1",
          "midi": 35,
          "time": 46.7999999999999,
          "velocity": 0.6299212598425197,
          "duration": 0.39833333333333343
        },
        {
          "name": "D#3",
          "midi": 51,
          "time": 46.7999999999999,
          "velocity": 0.6299212598425197,
          "duration": 0.39833333333333343
        },
        {
          "name": "E2",
          "midi": 40,
          "time": 47.199999999999896,
          "velocity": 0.6299212598425197,
          "duration": 0.39833333333333343
        },
        {
          "name": "D#3",
          "midi": 51,
          "time": 47.199999999999896,
          "velocity": 0.6299212598425197,
          "duration": 0.39833333333333343
        },
        {
          "name": "D#3",
          "midi": 51,
          "time": 47.599999999999895,
          "velocity": 0.6299212598425197,
          "duration": 0.39833333333333343
        },
        {
          "name": "E2",
          "midi": 40,
          "time": 47.99999999999989,
          "velocity": 0.6299212598425197,
          "duration": 0.39833333333333343
        },
        {
          "name": "E2",
          "midi": 40,
          "time": 48.39999999999989,
          "velocity": 0.6299212598425197,
          "duration": 0.39833333333333343
        },
        {
          "name": "E2",
          "midi": 40,
          "time": 48.79999999999989,
          "velocity": 0.6299212598425197,
          "duration": 0.39833333333333343
        },
        {
          "name": "E2",
          "midi": 40,
          "time": 49.19999999999989,
          "velocity": 0.6299212598425197,
          "duration": 0.39833333333333343
        },
        {
          "name": "D#3",
          "midi": 51,
          "time": 49.59999999999989,
          "velocity": 0.6299212598425197,
          "duration": 0.39833333333333343
        },
        {
          "name": "E2",
          "midi": 40,
          "time": 49.999999999999886,
          "velocity": 0.6299212598425197,
          "duration": 0.39833333333333343
        },
        {
          "name": "E2",
          "midi": 40,
          "time": 50.399999999999885,
          "velocity": 0.6299212598425197,
          "duration": 0.39833333333333343
        },
        {
          "name": "E2",
          "midi": 40,
          "time": 50.79999999999988,
          "velocity": 0.6299212598425197,
          "duration": 0.39833333333333343
        },
        {
          "name": "B1",
          "midi": 35,
          "time": 51.19999999999988,
          "velocity": 0.6299212598425197,
          "duration": 0.39833333333333343
        },
        {
          "name": "F#2",
          "midi": 42,
          "time": 51.19999999999988,
          "velocity": 0.6299212598425197,
          "duration": 0.39833333333333343
        },
        {
          "name": "F#2",
          "midi": 42,
          "time": 51.59999999999988,
          "velocity": 0.6299212598425197,
          "duration": 0.39833333333333343
        },
        {
          "name": "E2",
          "midi": 40,
          "time": 51.99999999999988,
          "velocity": 0.6299212598425197,
          "duration": 0.39833333333333343
        },
        {
          "name": "F#2",
          "midi": 42,
          "time": 51.99999999999988,
          "velocity": 0.6299212598425197,
          "duration": 0.39833333333333343
        },
        {
          "name": "B1",
          "midi": 35,
          "time": 52.39999999999988,
          "velocity": 0.6299212598425197,
          "duration": 0.39833333333333343
        },
        {
          "name": "F#2",
          "midi": 42,
          "time": 52.39999999999988,
          "velocity": 0.6299212598425197,
          "duration": 0.39833333333333343
        },
        {
          "name": "B1",
          "midi": 35,
          "time": 52.799999999999876,
          "velocity": 0.6299212598425197,
          "duration": 0.39833333333333343
        },
        {
          "name": "F#2",
          "midi": 42,
          "time": 52.799999999999876,
          "velocity": 0.6299212598425197,
          "duration": 0.39833333333333343
        },
        {
          "name": "F#2",
          "midi": 42,
          "time": 53.199999999999875,
          "velocity": 0.6299212598425197,
          "duration": 0.39833333333333343
        },
        {
          "name": "E2",
          "midi": 40,
          "time": 53.59999999999987,
          "velocity": 0.6299212598425197,
          "duration": 0.39833333333333343
        },
        {
          "name": "F#2",
          "midi": 42,
          "time": 53.59999999999987,
          "velocity": 0.6299212598425197,
          "duration": 0.39833333333333343
        },
        {
          "name": "F#2",
          "midi": 42,
          "time": 53.99999999999987,
          "velocity": 0.6299212598425197,
          "duration": 0.39833333333333343
        },
        {
          "name": "E2",
          "midi": 40,
          "time": 54.39999999999987,
          "velocity": 0.6299212598425197,
          "duration": 0.39833333333333343
        },
        {
          "name": "E2",
          "midi": 40,
          "time": 54.79999999999987,
          "velocity": 0.6299212598425197,
          "duration": 0.39833333333333343
        },
        {
          "name": "D3",
          "midi": 50,
          "time": 55.19999999999987,
          "velocity": 0.6299212598425197,
          "duration": 0.39833333333333343
        },
        {
          "name": "D3",
          "midi": 50,
          "time": 55.599999999999866,
          "velocity": 0.6299212598425197,
          "duration": 0.39833333333333343
        },
        {
          "name": "C3",
          "midi": 48,
          "time": 55.999999999999865,
          "velocity": 0.6299212598425197,
          "duration": 0.39833333333333343
        },
        {
          "name": "C3",
          "midi": 48,
          "time": 56.399999999999864,
          "velocity": 0.6299212598425197,
          "duration": 0.39833333333333343
        },
        {
          "name": "B2",
          "midi": 47,
          "time": 56.79999999999986,
          "velocity": 0.6299212598425197,
          "duration": 0.39833333333333343
        },
        {
          "name": "B2",
          "midi": 47,
          "time": 57.19999999999986,
          "velocity": 0.6299212598425197,
          "duration": 0.39833333333333343
        },
        {
          "name": "B1",
          "midi": 35,
          "time": 57.59999999999986,
          "velocity": 0.6299212598425197,
          "duration": 0.39833333333333343
        },
        {
          "name": "D#3",
          "midi": 51,
          "time": 57.59999999999986,
          "velocity": 0.6299212598425197,
          "duration": 0.39833333333333343
        },
        {
          "name": "D#3",
          "midi": 51,
          "time": 57.99999999999986,
          "velocity": 0.6299212598425197,
          "duration": 0.39833333333333343
        },
        {
          "name": "E2",
          "midi": 40,
          "time": 58.39999999999986,
          "velocity": 0.6299212598425197,
          "duration": 0.39833333333333343
        },
        {
          "name": "D#3",
          "midi": 51,
          "time": 58.39999999999986,
          "velocity": 0.6299212598425197,
          "duration": 0.39833333333333343
        },
        {
          "name": "B1",
          "midi": 35,
          "time": 58.799999999999855,
          "velocity": 0.6299212598425197,
          "duration": 0.39833333333333343
        },
        {
          "name": "D#3",
          "midi": 51,
          "time": 58.799999999999855,
          "velocity": 0.6299212598425197,
          "duration": 0.39833333333333343
        },
        {
          "name": "B1",
          "midi": 35,
          "time": 59.199999999999854,
          "velocity": 0.6299212598425197,
          "duration": 0.39833333333333343
        },
        {
          "name": "D#3",
          "midi": 51,
          "time": 59.199999999999854,
          "velocity": 0.6299212598425197,
          "duration": 0.39833333333333343
        },
        {
          "name": "D#3",
          "midi": 51,
          "time": 59.59999999999985,
          "velocity": 0.6299212598425197,
          "duration": 0.39833333333333343
        },
        {
          "name": "E2",
          "midi": 40,
          "time": 59.99999999999985,
          "velocity": 0.6299212598425197,
          "duration": 0.39833333333333343
        },
        {
          "name": "D#3",
          "midi": 51,
          "time": 59.99999999999985,
          "velocity": 0.6299212598425197,
          "duration": 0.39833333333333343
        },
        {
          "name": "D#3",
          "midi": 51,
          "time": 60.39999999999985,
          "velocity": 0.6299212598425197,
          "duration": 0.39833333333333343
        },
        {
          "name": "E2",
          "midi": 40,
          "time": 60.79999999999985,
          "velocity": 0.6299212598425197,
          "duration": 0.39833333333333343
        },
        {
          "name": "E2",
          "midi": 40,
          "time": 61.19999999999985,
          "velocity": 0.6299212598425197,
          "duration": 0.39833333333333343
        },
        {
          "name": "E2",
          "midi": 40,
          "time": 61.599999999999845,
          "velocity": 0.6299212598425197,
          "duration": 0.39833333333333343
        },
        {
          "name": "E2",
          "midi": 40,
          "time": 61.999999999999844,
          "velocity": 0.6299212598425197,
          "duration": 0.39833333333333343
        },
        {
          "name": "F#2",
          "midi": 42,
          "time": 62.39999999999984,
          "velocity": 0.6299212598425197,
          "duration": 0.39833333333333343
        },
        {
          "name": "E2",
          "midi": 40,
          "time": 62.79999999999984,
          "velocity": 0.6299212598425197,
          "duration": 0.39833333333333343
        },
        {
          "name": "E2",
          "midi": 40,
          "time": 63.19999999999984,
          "velocity": 0.6299212598425197,
          "duration": 0.39833333333333343
        },
        {
          "name": "E2",
          "midi": 40,
          "time": 63.59999999999984,
          "velocity": 0.6299212598425197,
          "duration": 0.39833333333333343
        },
        {
          "name": "B1",
          "midi": 35,
          "time": 63.99999999999984,
          "velocity": 0.6299212598425197,
          "duration": 0.39833333333333343
        },
        {
          "name": "F#2",
          "midi": 42,
          "time": 63.99999999999984,
          "velocity": 0.6299212598425197,
          "duration": 0.39833333333333343
        },
        {
          "name": "F#2",
          "midi": 42,
          "time": 64.39999999999984,
          "velocity": 0.6299212598425197,
          "duration": 0.3983333333333263
        },
        {
          "name": "E2",
          "midi": 40,
          "time": 64.79999999999983,
          "velocity": 0.6299212598425197,
          "duration": 0.3983333333333263
        },
        {
          "name": "F#2",
          "midi": 42,
          "time": 64.79999999999983,
          "velocity": 0.6299212598425197,
          "duration": 0.3983333333333263
        },
        {
          "name": "B1",
          "midi": 35,
          "time": 65.19999999999982,
          "velocity": 0.6299212598425197,
          "duration": 0.3983333333333263
        },
        {
          "name": "F#2",
          "midi": 42,
          "time": 65.19999999999982,
          "velocity": 0.6299212598425197,
          "duration": 0.3983333333333263
        },
        {
          "name": "B1",
          "midi": 35,
          "time": 65.59999999999981,
          "velocity": 0.6299212598425197,
          "duration": 0.3983333333333263
        },
        {
          "name": "F#2",
          "midi": 42,
          "time": 65.59999999999981,
          "velocity": 0.6299212598425197,
          "duration": 0.3983333333333263
        },
        {
          "name": "F#2",
          "midi": 42,
          "time": 65.9999999999998,
          "velocity": 0.6299212598425197,
          "duration": 0.3983333333333263
        },
        {
          "name": "E2",
          "midi": 40,
          "time": 66.39999999999979,
          "velocity": 0.6299212598425197,
          "duration": 0.3983333333333263
        },
        {
          "name": "F#2",
          "midi": 42,
          "time": 66.39999999999979,
          "velocity": 0.6299212598425197,
          "duration": 0.3983333333333263
        },
        {
          "name": "F#2",
          "midi": 42,
          "time": 66.79999999999978,
          "velocity": 0.6299212598425197,
          "duration": 0.3983333333333263
        },
        {
          "name": "E2",
          "midi": 40,
          "time": 67.19999999999978,
          "velocity": 0.6299212598425197,
          "duration": 0.3983333333333263
        },
        {
          "name": "E2",
          "midi": 40,
          "time": 67.59999999999977,
          "velocity": 0.6299212598425197,
          "duration": 0.3983333333333263
        },
        {
          "name": "D3",
          "midi": 50,
          "time": 67.99999999999976,
          "velocity": 0.6299212598425197,
          "duration": 0.3983333333333263
        },
        {
          "name": "D3",
          "midi": 50,
          "time": 68.39999999999975,
          "velocity": 0.6299212598425197,
          "duration": 0.3983333333333263
        },
        {
          "name": "C3",
          "midi": 48,
          "time": 68.79999999999974,
          "velocity": 0.6299212598425197,
          "duration": 0.3983333333333263
        },
        {
          "name": "C3",
          "midi": 48,
          "time": 69.19999999999973,
          "velocity": 0.6299212598425197,
          "duration": 0.3983333333333263
        },
        {
          "name": "B2",
          "midi": 47,
          "time": 69.59999999999972,
          "velocity": 0.6299212598425197,
          "duration": 0.3983333333333263
        },
        {
          "name": "B2",
          "midi": 47,
          "time": 69.99999999999972,
          "velocity": 0.6299212598425197,
          "duration": 0.3983333333333263
        },
        {
          "name": "B1",
          "midi": 35,
          "time": 70.39999999999971,
          "velocity": 0.6299212598425197,
          "duration": 0.3983333333333263
        },
        {
          "name": "D#3",
          "midi": 51,
          "time": 70.39999999999971,
          "velocity": 0.6299212598425197,
          "duration": 0.3983333333333263
        },
        {
          "name": "D#3",
          "midi": 51,
          "time": 70.7999999999997,
          "velocity": 0.6299212598425197,
          "duration": 0.3983333333333263
        },
        {
          "name": "E2",
          "midi": 40,
          "time": 71.19999999999969,
          "velocity": 0.6299212598425197,
          "duration": 0.3983333333333263
        },
        {
          "name": "D#3",
          "midi": 51,
          "time": 71.19999999999969,
          "velocity": 0.6299212598425197,
          "duration": 0.3983333333333263
        },
        {
          "name": "B1",
          "midi": 35,
          "time": 71.59999999999968,
          "velocity": 0.6299212598425197,
          "duration": 0.3983333333333263
        },
        {
          "name": "D#3",
          "midi": 51,
          "time": 71.59999999999968,
          "velocity": 0.6299212598425197,
          "duration": 0.3983333333333263
        },
        {
          "name": "B1",
          "midi": 35,
          "time": 71.99999999999967,
          "velocity": 0.6299212598425197,
          "duration": 0.3983333333333263
        },
        {
          "name": "D#3",
          "midi": 51,
          "time": 71.99999999999967,
          "velocity": 0.6299212598425197,
          "duration": 0.3983333333333263
        },
        {
          "name": "D#3",
          "midi": 51,
          "time": 72.39999999999966,
          "velocity": 0.6299212598425197,
          "duration": 0.3983333333333263
        },
        {
          "name": "E2",
          "midi": 40,
          "time": 72.79999999999966,
          "velocity": 0.6299212598425197,
          "duration": 0.3983333333333263
        },
        {
          "name": "D#3",
          "midi": 51,
          "time": 72.79999999999966,
          "velocity": 0.6299212598425197,
          "duration": 0.3983333333333263
        },
        {
          "name": "D#3",
          "midi": 51,
          "time": 73.19999999999965,
          "velocity": 0.6299212598425197,
          "duration": 0.3983333333333263
        },
        {
          "name": "E2",
          "midi": 40,
          "time": 73.59999999999964,
          "velocity": 0.6299212598425197,
          "duration": 0.3983333333333263
        },
        {
          "name": "E2",
          "midi": 40,
          "time": 73.99999999999963,
          "velocity": 0.6299212598425197,
          "duration": 0.3983333333333263
        },
        {
          "name": "E2",
          "midi": 40,
          "time": 74.39999999999962,
          "velocity": 0.6299212598425197,
          "duration": 0.3983333333333263
        },
        {
          "name": "E2",
          "midi": 40,
          "time": 74.79999999999961,
          "velocity": 0.6299212598425197,
          "duration": 0.3983333333333263
        },
        {
          "name": "F#2",
          "midi": 42,
          "time": 75.1999999999996,
          "velocity": 0.6299212598425197,
          "duration": 0.3983333333333263
        },
        {
          "name": "E2",
          "midi": 40,
          "time": 75.5999999999996,
          "velocity": 0.6299212598425197,
          "duration": 0.3983333333333263
        },
        {
          "name": "E2",
          "midi": 40,
          "time": 75.99999999999959,
          "velocity": 0.6299212598425197,
          "duration": 0.3983333333333263
        },
        {
          "name": "E2",
          "midi": 40,
          "time": 76.39999999999958,
          "velocity": 0.6299212598425197,
          "duration": 0.3983333333333263
        },
        {
          "name": "B1",
          "midi": 35,
          "time": 76.79999999999957,
          "velocity": 0.6299212598425197,
          "duration": 0.3983333333333263
        },
        {
          "name": "F#2",
          "midi": 42,
          "time": 76.79999999999957,
          "velocity": 0.6299212598425197,
          "duration": 0.3983333333333263
        },
        {
          "name": "F#2",
          "midi": 42,
          "time": 77.19999999999956,
          "velocity": 0.6299212598425197,
          "duration": 0.3983333333333263
        },
        {
          "name": "E2",
          "midi": 40,
          "time": 77.59999999999955,
          "velocity": 0.6299212598425197,
          "duration": 0.3983333333333263
        },
        {
          "name": "F#2",
          "midi": 42,
          "time": 77.59999999999955,
          "velocity": 0.6299212598425197,
          "duration": 0.3983333333333263
        },
        {
          "name": "E2",
          "midi": 40,
          "time": 77.99999999999955,
          "velocity": 0.6299212598425197,
          "duration": 0.3983333333333263
        },
        {
          "name": "F#2",
          "midi": 42,
          "time": 77.99999999999955,
          "velocity": 0.6299212598425197,
          "duration": 0.3983333333333263
        },
        {
          "name": "B1",
          "midi": 35,
          "time": 78.39999999999954,
          "velocity": 0.6299212598425197,
          "duration": 0.3983333333333263
        },
        {
          "name": "F#2",
          "midi": 42,
          "time": 78.39999999999954,
          "velocity": 0.6299212598425197,
          "duration": 0.3983333333333263
        },
        {
          "name": "F#2",
          "midi": 42,
          "time": 78.79999999999953,
          "velocity": 0.6299212598425197,
          "duration": 0.3983333333333263
        },
        {
          "name": "E2",
          "midi": 40,
          "time": 79.19999999999952,
          "velocity": 0.6299212598425197,
          "duration": 0.3983333333333263
        },
        {
          "name": "F#2",
          "midi": 42,
          "time": 79.19999999999952,
          "velocity": 0.6299212598425197,
          "duration": 0.3983333333333263
        },
        {
          "name": "F#2",
          "midi": 42,
          "time": 79.59999999999951,
          "velocity": 0.6299212598425197,
          "duration": 0.3983333333333263
        },
        {
          "name": "E2",
          "midi": 40,
          "time": 79.9999999999995,
          "velocity": 0.6299212598425197,
          "duration": 0.3983333333333263
        },
        {
          "name": "E2",
          "midi": 40,
          "time": 80.3999999999995,
          "velocity": 0.6299212598425197,
          "duration": 0.3983333333333263
        },
        {
          "name": "D3",
          "midi": 50,
          "time": 80.79999999999949,
          "velocity": 0.6299212598425197,
          "duration": 0.3983333333333263
        },
        {
          "name": "D3",
          "midi": 50,
          "time": 81.19999999999948,
          "velocity": 0.6299212598425197,
          "duration": 0.3983333333333263
        },
        {
          "name": "E2",
          "midi": 40,
          "time": 81.59999999999947,
          "velocity": 0.6299212598425197,
          "duration": 0.3983333333333263
        },
        {
          "name": "E2",
          "midi": 40,
          "time": 81.99999999999946,
          "velocity": 0.6299212598425197,
          "duration": 0.3983333333333263
        },
        {
          "name": "C3",
          "midi": 48,
          "time": 82.39999999999945,
          "velocity": 0.6299212598425197,
          "duration": 0.3983333333333263
        },
        {
          "name": "C3",
          "midi": 48,
          "time": 82.79999999999944,
          "velocity": 0.6299212598425197,
          "duration": 0.3983333333333263
        },
        {
          "name": "B1",
          "midi": 35,
          "time": 83.19999999999943,
          "velocity": 0.6299212598425197,
          "duration": 0.3983333333333263
        },
        {
          "name": "D#3",
          "midi": 51,
          "time": 83.19999999999943,
          "velocity": 0.6299212598425197,
          "duration": 0.3983333333333263
        },
        {
          "name": "D#3",
          "midi": 51,
          "time": 83.59999999999943,
          "velocity": 0.6299212598425197,
          "duration": 0.3983333333333263
        },
        {
          "name": "E2",
          "midi": 40,
          "time": 83.99999999999942,
          "velocity": 0.6299212598425197,
          "duration": 0.3983333333333263
        },
        {
          "name": "D#3",
          "midi": 51,
          "time": 83.99999999999942,
          "velocity": 0.6299212598425197,
          "duration": 0.3983333333333263
        },
        {
          "name": "E2",
          "midi": 40,
          "time": 84.39999999999941,
          "velocity": 0.6299212598425197,
          "duration": 0.3983333333333263
        },
        {
          "name": "D#3",
          "midi": 51,
          "time": 84.39999999999941,
          "velocity": 0.6299212598425197,
          "duration": 0.3983333333333263
        },
        {
          "name": "B1",
          "midi": 35,
          "time": 84.7999999999994,
          "velocity": 0.6299212598425197,
          "duration": 0.3983333333333263
        },
        {
          "name": "D#3",
          "midi": 51,
          "time": 84.7999999999994,
          "velocity": 0.6299212598425197,
          "duration": 0.3983333333333263
        },
        {
          "name": "D#3",
          "midi": 51,
          "time": 85.19999999999939,
          "velocity": 0.6299212598425197,
          "duration": 0.3983333333333263
        },
        {
          "name": "E2",
          "midi": 40,
          "time": 85.59999999999938,
          "velocity": 0.6299212598425197,
          "duration": 0.3983333333333263
        },
        {
          "name": "D#3",
          "midi": 51,
          "time": 85.59999999999938,
          "velocity": 0.6299212598425197,
          "duration": 0.3983333333333263
        },
        {
          "name": "D#3",
          "midi": 51,
          "time": 85.99999999999937,
          "velocity": 0.6299212598425197,
          "duration": 0.3983333333333263
        },
        {
          "name": "E2",
          "midi": 40,
          "time": 86.39999999999937,
          "velocity": 0.6299212598425197,
          "duration": 0.3983333333333263
        },
        {
          "name": "E2",
          "midi": 40,
          "time": 86.79999999999936,
          "velocity": 0.6299212598425197,
          "duration": 0.3983333333333263
        },
        {
          "name": "E2",
          "midi": 40,
          "time": 87.19999999999935,
          "velocity": 0.6299212598425197,
          "duration": 0.3983333333333263
        },
        {
          "name": "E2",
          "midi": 40,
          "time": 87.59999999999934,
          "velocity": 0.6299212598425197,
          "duration": 0.3983333333333263
        },
        {
          "name": "E2",
          "midi": 40,
          "time": 87.99999999999933,
          "velocity": 0.6299212598425197,
          "duration": 0.3983333333333263
        },
        {
          "name": "E2",
          "midi": 40,
          "time": 88.39999999999932,
          "velocity": 0.6299212598425197,
          "duration": 0.3983333333333263
        },
        {
          "name": "E2",
          "midi": 40,
          "time": 88.79999999999932,
          "velocity": 0.6299212598425197,
          "duration": 0.3983333333333263
        },
        {
          "name": "E2",
          "midi": 40,
          "time": 89.1999999999993,
          "velocity": 0.6299212598425197,
          "duration": 0.3983333333333263
        },
        {
          "name": "B1",
          "midi": 35,
          "time": 89.5999999999993,
          "velocity": 0.6299212598425197,
          "duration": 0.3983333333333263
        },
        {
          "name": "F#2",
          "midi": 42,
          "time": 89.5999999999993,
          "velocity": 0.6299212598425197,
          "duration": 0.3983333333333263
        },
        {
          "name": "F#2",
          "midi": 42,
          "time": 89.99999999999929,
          "velocity": 0.6299212598425197,
          "duration": 0.3983333333333263
        },
        {
          "name": "E2",
          "midi": 40,
          "time": 90.39999999999928,
          "velocity": 0.6299212598425197,
          "duration": 0.3983333333333263
        },
        {
          "name": "F#2",
          "midi": 42,
          "time": 90.39999999999928,
          "velocity": 0.6299212598425197,
          "duration": 0.3983333333333263
        },
        {
          "name": "E2",
          "midi": 40,
          "time": 90.79999999999927,
          "velocity": 0.6299212598425197,
          "duration": 0.3983333333333263
        },
        {
          "name": "F#2",
          "midi": 42,
          "time": 90.79999999999927,
          "velocity": 0.6299212598425197,
          "duration": 0.3983333333333263
        },
        {
          "name": "B1",
          "midi": 35,
          "time": 91.19999999999926,
          "velocity": 0.6299212598425197,
          "duration": 0.3983333333333263
        },
        {
          "name": "F#2",
          "midi": 42,
          "time": 91.19999999999926,
          "velocity": 0.6299212598425197,
          "duration": 0.3983333333333263
        },
        {
          "name": "F#2",
          "midi": 42,
          "time": 91.59999999999926,
          "velocity": 0.6299212598425197,
          "duration": 0.3983333333333263
        },
        {
          "name": "E2",
          "midi": 40,
          "time": 91.99999999999925,
          "velocity": 0.6299212598425197,
          "duration": 0.3983333333333263
        },
        {
          "name": "F#2",
          "midi": 42,
          "time": 91.99999999999925,
          "velocity": 0.6299212598425197,
          "duration": 0.3983333333333263
        },
        {
          "name": "F#2",
          "midi": 42,
          "time": 92.39999999999924,
          "velocity": 0.6299212598425197,
          "duration": 0.3983333333333263
        },
        {
          "name": "E2",
          "midi": 40,
          "time": 92.79999999999923,
          "velocity": 0.6299212598425197,
          "duration": 0.3983333333333263
        },
        {
          "name": "E2",
          "midi": 40,
          "time": 93.19999999999922,
          "velocity": 0.6299212598425197,
          "duration": 0.3983333333333263
        },
        {
          "name": "D3",
          "midi": 50,
          "time": 93.59999999999921,
          "velocity": 0.6299212598425197,
          "duration": 0.3983333333333263
        },
        {
          "name": "D3",
          "midi": 50,
          "time": 93.9999999999992,
          "velocity": 0.6299212598425197,
          "duration": 0.3983333333333263
        },
        {
          "name": "E2",
          "midi": 40,
          "time": 94.3999999999992,
          "velocity": 0.6299212598425197,
          "duration": 0.3983333333333263
        },
        {
          "name": "E2",
          "midi": 40,
          "time": 94.79999999999919,
          "velocity": 0.6299212598425197,
          "duration": 0.3983333333333263
        },
        {
          "name": "C3",
          "midi": 48,
          "time": 95.19999999999918,
          "velocity": 0.6299212598425197,
          "duration": 0.3983333333333263
        },
        {
          "name": "C3",
          "midi": 48,
          "time": 95.59999999999917,
          "velocity": 0.6299212598425197,
          "duration": 0.3983333333333263
        },
        {
          "name": "B1",
          "midi": 35,
          "time": 95.99999999999916,
          "velocity": 0.6299212598425197,
          "duration": 0.3983333333333263
        },
        {
          "name": "D#3",
          "midi": 51,
          "time": 95.99999999999916,
          "velocity": 0.6299212598425197,
          "duration": 0.3983333333333263
        },
        {
          "name": "D#3",
          "midi": 51,
          "time": 96.39999999999915,
          "velocity": 0.6299212598425197,
          "duration": 0.3983333333333263
        },
        {
          "name": "E2",
          "midi": 40,
          "time": 96.79999999999914,
          "velocity": 0.6299212598425197,
          "duration": 0.3983333333333263
        },
        {
          "name": "D#3",
          "midi": 51,
          "time": 96.79999999999914,
          "velocity": 0.6299212598425197,
          "duration": 0.3983333333333263
        },
        {
          "name": "E2",
          "midi": 40,
          "time": 97.19999999999914,
          "velocity": 0.6299212598425197,
          "duration": 0.3983333333333263
        },
        {
          "name": "D#3",
          "midi": 51,
          "time": 97.19999999999914,
          "velocity": 0.6299212598425197,
          "duration": 0.3983333333333263
        },
        {
          "name": "B1",
          "midi": 35,
          "time": 97.59999999999913,
          "velocity": 0.6299212598425197,
          "duration": 0.3983333333333263
        },
        {
          "name": "D#3",
          "midi": 51,
          "time": 97.59999999999913,
          "velocity": 0.6299212598425197,
          "duration": 0.3983333333333263
        },
        {
          "name": "D#3",
          "midi": 51,
          "time": 97.99999999999912,
          "velocity": 0.6299212598425197,
          "duration": 0.3983333333333263
        },
        {
          "name": "E2",
          "midi": 40,
          "time": 98.39999999999911,
          "velocity": 0.6299212598425197,
          "duration": 0.3983333333333263
        },
        {
          "name": "D#3",
          "midi": 51,
          "time": 98.39999999999911,
          "velocity": 0.6299212598425197,
          "duration": 0.3983333333333263
        },
        {
          "name": "D#3",
          "midi": 51,
          "time": 98.7999999999991,
          "velocity": 0.6299212598425197,
          "duration": 0.3983333333333263
        },
        {
          "name": "E2",
          "midi": 40,
          "time": 99.1999999999991,
          "velocity": 0.6299212598425197,
          "duration": 0.3983333333333263
        },
        {
          "name": "E2",
          "midi": 40,
          "time": 99.59999999999908,
          "velocity": 0.6299212598425197,
          "duration": 0.3983333333333263
        },
        {
          "name": "E2",
          "midi": 40,
          "time": 99.99999999999908,
          "velocity": 0.6299212598425197,
          "duration": 0.3983333333333263
        },
        {
          "name": "E2",
          "midi": 40,
          "time": 100.39999999999907,
          "velocity": 0.6299212598425197,
          "duration": 0.3983333333333263
        },
        {
          "name": "E2",
          "midi": 40,
          "time": 100.79999999999906,
          "velocity": 0.6299212598425197,
          "duration": 0.3983333333333263
        },
        {
          "name": "E2",
          "midi": 40,
          "time": 101.19999999999905,
          "velocity": 0.6299212598425197,
          "duration": 0.3983333333333263
        },
        {
          "name": "E2",
          "midi": 40,
          "time": 101.59999999999904,
          "velocity": 0.6299212598425197,
          "duration": 0.3983333333333263
        },
        {
          "name": "E2",
          "midi": 40,
          "time": 101.99999999999903,
          "velocity": 0.6299212598425197,
          "duration": 0.3983333333333263
        },
        {
          "name": "B1",
          "midi": 35,
          "time": 102.39999999999903,
          "velocity": 0.6299212598425197,
          "duration": 0.3983333333333263
        },
        {
          "name": "F#2",
          "midi": 42,
          "time": 102.39999999999903,
          "velocity": 0.6299212598425197,
          "duration": 0.3983333333333263
        },
        {
          "name": "F#2",
          "midi": 42,
          "time": 102.79999999999902,
          "velocity": 0.6299212598425197,
          "duration": 0.3983333333333263
        },
        {
          "name": "E2",
          "midi": 40,
          "time": 103.19999999999901,
          "velocity": 0.6299212598425197,
          "duration": 0.3983333333333263
        },
        {
          "name": "F#2",
          "midi": 42,
          "time": 103.19999999999901,
          "velocity": 0.6299212598425197,
          "duration": 0.3983333333333263
        },
        {
          "name": "F#2",
          "midi": 42,
          "time": 103.599999999999,
          "velocity": 0.6299212598425197,
          "duration": 0.3983333333333263
        },
        {
          "name": "E2",
          "midi": 40,
          "time": 103.99999999999899,
          "velocity": 0.6299212598425197,
          "duration": 0.3983333333333263
        },
        {
          "name": "F#2",
          "midi": 42,
          "time": 103.99999999999899,
          "velocity": 0.6299212598425197,
          "duration": 0.3983333333333263
        },
        {
          "name": "B1",
          "midi": 35,
          "time": 104.39999999999898,
          "velocity": 0.6299212598425197,
          "duration": 0.3983333333333263
        },
        {
          "name": "F#2",
          "midi": 42,
          "time": 104.39999999999898,
          "velocity": 0.6299212598425197,
          "duration": 0.3983333333333263
        },
        {
          "name": "E2",
          "midi": 40,
          "time": 104.79999999999897,
          "velocity": 0.6299212598425197,
          "duration": 0.3983333333333263
        },
        {
          "name": "F#2",
          "midi": 42,
          "time": 104.79999999999897,
          "velocity": 0.6299212598425197,
          "duration": 0.3983333333333263
        },
        {
          "name": "F#2",
          "midi": 42,
          "time": 105.19999999999897,
          "velocity": 0.6299212598425197,
          "duration": 0.3983333333333263
        },
        {
          "name": "E2",
          "midi": 40,
          "time": 105.59999999999896,
          "velocity": 0.6299212598425197,
          "duration": 0.3983333333333263
        },
        {
          "name": "E2",
          "midi": 40,
          "time": 105.99999999999895,
          "velocity": 0.6299212598425197,
          "duration": 0.3983333333333263
        },
        {
          "name": "B2",
          "midi": 47,
          "time": 106.39999999999894,
          "velocity": 0.6299212598425197,
          "duration": 0.3983333333333263
        },
        {
          "name": "B2",
          "midi": 47,
          "time": 106.79999999999893,
          "velocity": 0.6299212598425197,
          "duration": 0.3983333333333263
        },
        {
          "name": "C3",
          "midi": 48,
          "time": 107.19999999999892,
          "velocity": 0.6299212598425197,
          "duration": 0.3983333333333263
        },
        {
          "name": "C3",
          "midi": 48,
          "time": 107.59999999999891,
          "velocity": 0.6299212598425197,
          "duration": 0.3983333333333263
        },
        {
          "name": "D3",
          "midi": 50,
          "time": 107.9999999999989,
          "velocity": 0.6299212598425197,
          "duration": 0.3983333333333263
        },
        {
          "name": "D3",
          "midi": 50,
          "time": 108.3999999999989,
          "velocity": 0.6299212598425197,
          "duration": 0.3983333333333263
        },
        {
          "name": "B1",
          "midi": 35,
          "time": 108.79999999999889,
          "velocity": 0.6299212598425197,
          "duration": 0.3983333333333263
        },
        {
          "name": "D#3",
          "midi": 51,
          "time": 108.79999999999889,
          "velocity": 0.6299212598425197,
          "duration": 0.3983333333333263
        },
        {
          "name": "D#3",
          "midi": 51,
          "time": 109.19999999999888,
          "velocity": 0.6299212598425197,
          "duration": 0.3983333333333263
        },
        {
          "name": "E2",
          "midi": 40,
          "time": 109.59999999999887,
          "velocity": 0.6299212598425197,
          "duration": 0.3983333333333263
        },
        {
          "name": "D#3",
          "midi": 51,
          "time": 109.59999999999887,
          "velocity": 0.6299212598425197,
          "duration": 0.3983333333333263
        },
        {
          "name": "D#3",
          "midi": 51,
          "time": 109.99999999999886,
          "velocity": 0.6299212598425197,
          "duration": 0.3983333333333263
        },
        {
          "name": "E2",
          "midi": 40,
          "time": 110.39999999999885,
          "velocity": 0.6299212598425197,
          "duration": 0.3983333333333263
        },
        {
          "name": "D#3",
          "midi": 51,
          "time": 110.39999999999885,
          "velocity": 0.6299212598425197,
          "duration": 0.3983333333333263
        },
        {
          "name": "B1",
          "midi": 35,
          "time": 110.79999999999885,
          "velocity": 0.6299212598425197,
          "duration": 0.3983333333333263
        },
        {
          "name": "D#3",
          "midi": 51,
          "time": 110.79999999999885,
          "velocity": 0.6299212598425197,
          "duration": 0.3983333333333263
        },
        {
          "name": "E2",
          "midi": 40,
          "time": 111.19999999999884,
          "velocity": 0.6299212598425197,
          "duration": 0.3983333333333263
        },
        {
          "name": "D#3",
          "midi": 51,
          "time": 111.19999999999884,
          "velocity": 0.6299212598425197,
          "duration": 0.3983333333333263
        },
        {
          "name": "D#3",
          "midi": 51,
          "time": 111.59999999999883,
          "velocity": 0.6299212598425197,
          "duration": 0.3983333333333263
        },
        {
          "name": "E2",
          "midi": 40,
          "time": 111.99999999999882,
          "velocity": 0.6299212598425197,
          "duration": 0.3983333333333263
        },
        {
          "name": "E2",
          "midi": 40,
          "time": 112.39999999999881,
          "velocity": 0.6299212598425197,
          "duration": 0.3983333333333263
        },
        {
          "name": "C3",
          "midi": 48,
          "time": 112.7999999999988,
          "velocity": 0.6299212598425197,
          "duration": 0.3983333333333263
        },
        {
          "name": "C3",
          "midi": 48,
          "time": 113.1999999999988,
          "velocity": 0.6299212598425197,
          "duration": 0.3983333333333263
        },
        {
          "name": "D3",
          "midi": 50,
          "time": 113.59999999999879,
          "velocity": 0.6299212598425197,
          "duration": 0.3983333333333263
        },
        {
          "name": "D3",
          "midi": 50,
          "time": 113.99999999999878,
          "velocity": 0.6299212598425197,
          "duration": 0.3983333333333263
        },
        {
          "name": "B2",
          "midi": 47,
          "time": 114.39999999999877,
          "velocity": 0.6299212598425197,
          "duration": 0.3983333333333263
        },
        {
          "name": "B2",
          "midi": 47,
          "time": 114.79999999999876,
          "velocity": 0.6299212598425197,
          "duration": 0.3983333333333263
        },
        {
          "name": "B1",
          "midi": 35,
          "time": 115.19999999999875,
          "velocity": 0.6299212598425197,
          "duration": 0.3983333333333263
        },
        {
          "name": "F#2",
          "midi": 42,
          "time": 115.19999999999875,
          "velocity": 0.6299212598425197,
          "duration": 0.3983333333333263
        },
        {
          "name": "F#2",
          "midi": 42,
          "time": 115.59999999999874,
          "velocity": 0.6299212598425197,
          "duration": 0.3983333333333263
        },
        {
          "name": "E2",
          "midi": 40,
          "time": 115.99999999999874,
          "velocity": 0.6299212598425197,
          "duration": 0.3983333333333263
        },
        {
          "name": "F#2",
          "midi": 42,
          "time": 115.99999999999874,
          "velocity": 0.6299212598425197,
          "duration": 0.3983333333333263
        },
        {
          "name": "F#2",
          "midi": 42,
          "time": 116.39999999999873,
          "velocity": 0.6299212598425197,
          "duration": 0.3983333333333263
        },
        {
          "name": "E2",
          "midi": 40,
          "time": 116.79999999999872,
          "velocity": 0.6299212598425197,
          "duration": 0.3983333333333263
        },
        {
          "name": "F#2",
          "midi": 42,
          "time": 116.79999999999872,
          "velocity": 0.6299212598425197,
          "duration": 0.3983333333333263
        },
        {
          "name": "B1",
          "midi": 35,
          "time": 117.19999999999871,
          "velocity": 0.6299212598425197,
          "duration": 0.3983333333333263
        },
        {
          "name": "F#2",
          "midi": 42,
          "time": 117.19999999999871,
          "velocity": 0.6299212598425197,
          "duration": 0.3983333333333263
        },
        {
          "name": "E2",
          "midi": 40,
          "time": 117.5999999999987,
          "velocity": 0.6299212598425197,
          "duration": 0.3983333333333263
        },
        {
          "name": "F#2",
          "midi": 42,
          "time": 117.5999999999987,
          "velocity": 0.6299212598425197,
          "duration": 0.3983333333333263
        },
        {
          "name": "F#2",
          "midi": 42,
          "time": 117.99999999999869,
          "velocity": 0.6299212598425197,
          "duration": 0.3983333333333263
        },
        {
          "name": "E2",
          "midi": 40,
          "time": 118.39999999999868,
          "velocity": 0.6299212598425197,
          "duration": 0.3983333333333263
        },
        {
          "name": "E2",
          "midi": 40,
          "time": 118.79999999999868,
          "velocity": 0.6299212598425197,
          "duration": 0.3983333333333263
        },
        {
          "name": "B2",
          "midi": 47,
          "time": 119.19999999999867,
          "velocity": 0.6299212598425197,
          "duration": 0.3983333333333263
        },
        {
          "name": "B2",
          "midi": 47,
          "time": 119.59999999999866,
          "velocity": 0.6299212598425197,
          "duration": 0.3983333333333263
        },
        {
          "name": "C3",
          "midi": 48,
          "time": 119.99999999999865,
          "velocity": 0.6299212598425197,
          "duration": 0.3983333333333263
        },
        {
          "name": "C3",
          "midi": 48,
          "time": 120.39999999999864,
          "velocity": 0.6299212598425197,
          "duration": 0.3983333333333263
        },
        {
          "name": "D3",
          "midi": 50,
          "time": 120.79999999999863,
          "velocity": 0.6299212598425197,
          "duration": 0.3983333333333263
        },
        {
          "name": "D3",
          "midi": 50,
          "time": 121.19999999999862,
          "velocity": 0.6299212598425197,
          "duration": 0.3983333333333263
        },
        {
          "name": "B1",
          "midi": 35,
          "time": 121.59999999999862,
          "velocity": 0.6299212598425197,
          "duration": 0.3983333333333263
        },
        {
          "name": "D#3",
          "midi": 51,
          "time": 121.59999999999862,
          "velocity": 0.6299212598425197,
          "duration": 0.3983333333333263
        },
        {
          "name": "D#3",
          "midi": 51,
          "time": 121.99999999999861,
          "velocity": 0.6299212598425197,
          "duration": 0.3983333333333263
        },
        {
          "name": "E2",
          "midi": 40,
          "time": 122.3999999999986,
          "velocity": 0.6299212598425197,
          "duration": 0.3983333333333263
        },
        {
          "name": "D#3",
          "midi": 51,
          "time": 122.3999999999986,
          "velocity": 0.6299212598425197,
          "duration": 0.3983333333333263
        },
        {
          "name": "D#3",
          "midi": 51,
          "time": 122.79999999999859,
          "velocity": 0.6299212598425197,
          "duration": 0.3983333333333263
        },
        {
          "name": "E2",
          "midi": 40,
          "time": 123.19999999999858,
          "velocity": 0.6299212598425197,
          "duration": 0.3983333333333263
        },
        {
          "name": "D#3",
          "midi": 51,
          "time": 123.19999999999858,
          "velocity": 0.6299212598425197,
          "duration": 0.3983333333333263
        },
        {
          "name": "B1",
          "midi": 35,
          "time": 123.59999999999857,
          "velocity": 0.6299212598425197,
          "duration": 0.3983333333333263
        },
        {
          "name": "D#3",
          "midi": 51,
          "time": 123.59999999999857,
          "velocity": 0.6299212598425197,
          "duration": 0.3983333333333263
        },
        {
          "name": "E2",
          "midi": 40,
          "time": 123.99999999999856,
          "velocity": 0.6299212598425197,
          "duration": 0.3983333333333263
        },
        {
          "name": "D#3",
          "midi": 51,
          "time": 123.99999999999856,
          "velocity": 0.6299212598425197,
          "duration": 0.3983333333333263
        },
        {
          "name": "D#3",
          "midi": 51,
          "time": 124.39999999999856,
          "velocity": 0.6299212598425197,
          "duration": 0.3983333333333263
        },
        {
          "name": "E2",
          "midi": 40,
          "time": 124.79999999999855,
          "velocity": 0.6299212598425197,
          "duration": 0.3983333333333263
        },
        {
          "name": "E2",
          "midi": 40,
          "time": 125.19999999999854,
          "velocity": 0.6299212598425197,
          "duration": 0.3983333333333263
        },
        {
          "name": "C3",
          "midi": 48,
          "time": 125.59999999999853,
          "velocity": 0.6299212598425197,
          "duration": 0.3983333333333263
        },
        {
          "name": "C3",
          "midi": 48,
          "time": 125.99999999999852,
          "velocity": 0.6299212598425197,
          "duration": 0.3983333333333263
        },
        {
          "name": "D3",
          "midi": 50,
          "time": 126.39999999999851,
          "velocity": 0.6299212598425197,
          "duration": 0.3983333333333263
        },
        {
          "name": "D3",
          "midi": 50,
          "time": 126.7999999999985,
          "velocity": 0.6299212598425197,
          "duration": 0.3983333333333263
        },
        {
          "name": "B2",
          "midi": 47,
          "time": 127.1999999999985,
          "velocity": 0.6299212598425197,
          "duration": 0.3983333333333263
        },
        {
          "name": "B2",
          "midi": 47,
          "time": 127.59999999999849,
          "velocity": 0.6299212598425197,
          "duration": 0.3983333333333263
        },
        {
          "name": "B1",
          "midi": 35,
          "time": 127.99999999999848,
          "velocity": 0.6299212598425197,
          "duration": 0.3983333333333263
        },
        {
          "name": "F#2",
          "midi": 42,
          "time": 127.99999999999848,
          "velocity": 0.6299212598425197,
          "duration": 0.3983333333333263
        },
        {
          "name": "F#2",
          "midi": 42,
          "time": 128.39999999999847,
          "velocity": 0.6299212598425197,
          "duration": 0.39833333333334053
        },
        {
          "name": "E2",
          "midi": 40,
          "time": 128.79999999999848,
          "velocity": 0.6299212598425197,
          "duration": 0.39833333333334053
        },
        {
          "name": "F#2",
          "midi": 42,
          "time": 128.79999999999848,
          "velocity": 0.6299212598425197,
          "duration": 0.39833333333334053
        },
        {
          "name": "E2",
          "midi": 40,
          "time": 129.19999999999848,
          "velocity": 0.6299212598425197,
          "duration": 0.39833333333334053
        },
        {
          "name": "F#2",
          "midi": 42,
          "time": 129.19999999999848,
          "velocity": 0.6299212598425197,
          "duration": 0.39833333333334053
        },
        {
          "name": "E2",
          "midi": 40,
          "time": 129.5999999999985,
          "velocity": 0.6299212598425197,
          "duration": 0.39833333333334053
        },
        {
          "name": "F#2",
          "midi": 42,
          "time": 129.5999999999985,
          "velocity": 0.6299212598425197,
          "duration": 0.39833333333334053
        },
        {
          "name": "B1",
          "midi": 35,
          "time": 129.9999999999985,
          "velocity": 0.6299212598425197,
          "duration": 0.39833333333334053
        },
        {
          "name": "F#2",
          "midi": 42,
          "time": 129.9999999999985,
          "velocity": 0.6299212598425197,
          "duration": 0.39833333333334053
        },
        {
          "name": "E2",
          "midi": 40,
          "time": 130.3999999999985,
          "velocity": 0.6299212598425197,
          "duration": 0.39833333333334053
        },
        {
          "name": "F#2",
          "midi": 42,
          "time": 130.3999999999985,
          "velocity": 0.6299212598425197,
          "duration": 0.39833333333334053
        },
        {
          "name": "F#2",
          "midi": 42,
          "time": 130.7999999999985,
          "velocity": 0.6299212598425197,
          "duration": 0.39833333333334053
        },
        {
          "name": "E2",
          "midi": 40,
          "time": 131.1999999999985,
          "velocity": 0.6299212598425197,
          "duration": 0.39833333333334053
        },
        {
          "name": "E2",
          "midi": 40,
          "time": 131.59999999999852,
          "velocity": 0.6299212598425197,
          "duration": 0.39833333333334053
        },
        {
          "name": "E2",
          "midi": 40,
          "time": 131.99999999999852,
          "velocity": 0.6299212598425197,
          "duration": 0.39833333333334053
        },
        {
          "name": "E2",
          "midi": 40,
          "time": 132.39999999999853,
          "velocity": 0.6299212598425197,
          "duration": 0.39833333333334053
        },
        {
          "name": "E2",
          "midi": 40,
          "time": 132.79999999999853,
          "velocity": 0.6299212598425197,
          "duration": 0.39833333333334053
        },
        {
          "name": "E2",
          "midi": 40,
          "time": 133.19999999999854,
          "velocity": 0.6299212598425197,
          "duration": 0.39833333333334053
        },
        {
          "name": "C3",
          "midi": 48,
          "time": 133.59999999999854,
          "velocity": 0.6299212598425197,
          "duration": 0.39833333333334053
        },
        {
          "name": "C3",
          "midi": 48,
          "time": 133.99999999999855,
          "velocity": 0.6299212598425197,
          "duration": 0.39833333333334053
        },
        {
          "name": "B1",
          "midi": 35,
          "time": 134.39999999999856,
          "velocity": 0.6299212598425197,
          "duration": 0.39833333333334053
        },
        {
          "name": "D#3",
          "midi": 51,
          "time": 134.39999999999856,
          "velocity": 0.6299212598425197,
          "duration": 0.39833333333334053
        },
        {
          "name": "D#3",
          "midi": 51,
          "time": 134.79999999999856,
          "velocity": 0.6299212598425197,
          "duration": 0.39833333333334053
        },
        {
          "name": "E2",
          "midi": 40,
          "time": 135.19999999999857,
          "velocity": 0.6299212598425197,
          "duration": 0.39833333333334053
        },
        {
          "name": "D#3",
          "midi": 51,
          "time": 135.19999999999857,
          "velocity": 0.6299212598425197,
          "duration": 0.39833333333334053
        },
        {
          "name": "E2",
          "midi": 40,
          "time": 135.59999999999857,
          "velocity": 0.6299212598425197,
          "duration": 0.39833333333334053
        },
        {
          "name": "D#3",
          "midi": 51,
          "time": 135.59999999999857,
          "velocity": 0.6299212598425197,
          "duration": 0.39833333333334053
        },
        {
          "name": "E2",
          "midi": 40,
          "time": 135.99999999999858,
          "velocity": 0.6299212598425197,
          "duration": 0.39833333333334053
        },
        {
          "name": "D#3",
          "midi": 51,
          "time": 135.99999999999858,
          "velocity": 0.6299212598425197,
          "duration": 0.39833333333334053
        },
        {
          "name": "B1",
          "midi": 35,
          "time": 136.39999999999858,
          "velocity": 0.6299212598425197,
          "duration": 0.39833333333334053
        },
        {
          "name": "D#3",
          "midi": 51,
          "time": 136.39999999999858,
          "velocity": 0.6299212598425197,
          "duration": 0.39833333333334053
        },
        {
          "name": "E2",
          "midi": 40,
          "time": 136.7999999999986,
          "velocity": 0.6299212598425197,
          "duration": 0.39833333333334053
        },
        {
          "name": "D#3",
          "midi": 51,
          "time": 136.7999999999986,
          "velocity": 0.6299212598425197,
          "duration": 0.39833333333334053
        },
        {
          "name": "D#3",
          "midi": 51,
          "time": 137.1999999999986,
          "velocity": 0.6299212598425197,
          "duration": 0.39833333333334053
        },
        {
          "name": "E2",
          "midi": 40,
          "time": 137.5999999999986,
          "velocity": 0.6299212598425197,
          "duration": 0.39833333333334053
        },
        {
          "name": "E2",
          "midi": 40,
          "time": 137.9999999999986,
          "velocity": 0.6299212598425197,
          "duration": 0.39833333333334053
        },
        {
          "name": "B1",
          "midi": 35,
          "time": 138.3999999999986,
          "velocity": 0.6299212598425197,
          "duration": 0.39833333333334053
        },
        {
          "name": "B1",
          "midi": 35,
          "time": 138.79999999999862,
          "velocity": 0.6299212598425197,
          "duration": 0.39833333333334053
        },
        {
          "name": "E2",
          "midi": 40,
          "time": 139.19999999999862,
          "velocity": 0.6299212598425197,
          "duration": 0.39833333333334053
        },
        {
          "name": "E2",
          "midi": 40,
          "time": 139.59999999999863,
          "velocity": 0.6299212598425197,
          "duration": 0.39833333333334053
        },
        {
          "name": "E2",
          "midi": 40,
          "time": 139.99999999999864,
          "velocity": 0.6299212598425197,
          "duration": 0.39833333333334053
        },
        {
          "name": "E2",
          "midi": 40,
          "time": 140.39999999999864,
          "velocity": 0.6299212598425197,
          "duration": 0.39833333333334053
        },
        {
          "name": "B1",
          "midi": 35,
          "time": 140.79999999999865,
          "velocity": 0.6299212598425197,
          "duration": 0.39833333333334053
        },
        {
          "name": "F#2",
          "midi": 42,
          "time": 140.79999999999865,
          "velocity": 0.6299212598425197,
          "duration": 0.39833333333334053
        },
        {
          "name": "F#2",
          "midi": 42,
          "time": 141.19999999999865,
          "velocity": 0.6299212598425197,
          "duration": 0.39833333333334053
        },
        {
          "name": "E2",
          "midi": 40,
          "time": 141.59999999999866,
          "velocity": 0.6299212598425197,
          "duration": 0.39833333333334053
        },
        {
          "name": "F#2",
          "midi": 42,
          "time": 141.59999999999866,
          "velocity": 0.6299212598425197,
          "duration": 0.39833333333334053
        },
        {
          "name": "E2",
          "midi": 40,
          "time": 141.99999999999866,
          "velocity": 0.6299212598425197,
          "duration": 0.39833333333334053
        },
        {
          "name": "F#2",
          "midi": 42,
          "time": 141.99999999999866,
          "velocity": 0.6299212598425197,
          "duration": 0.39833333333334053
        },
        {
          "name": "E2",
          "midi": 40,
          "time": 142.39999999999867,
          "velocity": 0.6299212598425197,
          "duration": 0.39833333333334053
        },
        {
          "name": "F#2",
          "midi": 42,
          "time": 142.39999999999867,
          "velocity": 0.6299212598425197,
          "duration": 0.39833333333334053
        },
        {
          "name": "B1",
          "midi": 35,
          "time": 142.79999999999868,
          "velocity": 0.6299212598425197,
          "duration": 0.39833333333334053
        },
        {
          "name": "F#2",
          "midi": 42,
          "time": 142.79999999999868,
          "velocity": 0.6299212598425197,
          "duration": 0.39833333333334053
        },
        {
          "name": "E2",
          "midi": 40,
          "time": 143.19999999999868,
          "velocity": 0.6299212598425197,
          "duration": 0.39833333333334053
        },
        {
          "name": "F#2",
          "midi": 42,
          "time": 143.19999999999868,
          "velocity": 0.6299212598425197,
          "duration": 0.39833333333334053
        },
        {
          "name": "F#2",
          "midi": 42,
          "time": 143.5999999999987,
          "velocity": 0.6299212598425197,
          "duration": 0.39833333333334053
        },
        {
          "name": "E2",
          "midi": 40,
          "time": 143.9999999999987,
          "velocity": 0.6299212598425197,
          "duration": 0.39833333333334053
        },
        {
          "name": "E2",
          "midi": 40,
          "time": 144.3999999999987,
          "velocity": 0.6299212598425197,
          "duration": 0.39833333333334053
        },
        {
          "name": "E2",
          "midi": 40,
          "time": 144.7999999999987,
          "velocity": 0.6299212598425197,
          "duration": 0.39833333333334053
        },
        {
          "name": "E2",
          "midi": 40,
          "time": 145.1999999999987,
          "velocity": 0.6299212598425197,
          "duration": 0.39833333333334053
        },
        {
          "name": "E2",
          "midi": 40,
          "time": 145.59999999999872,
          "velocity": 0.6299212598425197,
          "duration": 0.39833333333334053
        },
        {
          "name": "E2",
          "midi": 40,
          "time": 145.99999999999872,
          "velocity": 0.6299212598425197,
          "duration": 0.39833333333334053
        },
        {
          "name": "C3",
          "midi": 48,
          "time": 146.39999999999873,
          "velocity": 0.6299212598425197,
          "duration": 0.39833333333334053
        },
        {
          "name": "C3",
          "midi": 48,
          "time": 146.79999999999873,
          "velocity": 0.6299212598425197,
          "duration": 0.39833333333334053
        },
        {
          "name": "B1",
          "midi": 35,
          "time": 147.19999999999874,
          "velocity": 0.6299212598425197,
          "duration": 0.39833333333334053
        },
        {
          "name": "D#3",
          "midi": 51,
          "time": 147.19999999999874,
          "velocity": 0.6299212598425197,
          "duration": 0.39833333333334053
        },
        {
          "name": "D#3",
          "midi": 51,
          "time": 147.59999999999874,
          "velocity": 0.6299212598425197,
          "duration": 0.39833333333334053
        },
        {
          "name": "E2",
          "midi": 40,
          "time": 147.99999999999875,
          "velocity": 0.6299212598425197,
          "duration": 0.39833333333334053
        },
        {
          "name": "D#3",
          "midi": 51,
          "time": 147.99999999999875,
          "velocity": 0.6299212598425197,
          "duration": 0.39833333333334053
        },
        {
          "name": "E2",
          "midi": 40,
          "time": 148.39999999999876,
          "velocity": 0.6299212598425197,
          "duration": 0.39833333333334053
        },
        {
          "name": "D#3",
          "midi": 51,
          "time": 148.39999999999876,
          "velocity": 0.6299212598425197,
          "duration": 0.39833333333334053
        },
        {
          "name": "E2",
          "midi": 40,
          "time": 148.79999999999876,
          "velocity": 0.6299212598425197,
          "duration": 0.39833333333334053
        },
        {
          "name": "D#3",
          "midi": 51,
          "time": 148.79999999999876,
          "velocity": 0.6299212598425197,
          "duration": 0.39833333333334053
        },
        {
          "name": "B1",
          "midi": 35,
          "time": 149.19999999999877,
          "velocity": 0.6299212598425197,
          "duration": 0.39833333333334053
        },
        {
          "name": "D#3",
          "midi": 51,
          "time": 149.19999999999877,
          "velocity": 0.6299212598425197,
          "duration": 0.39833333333334053
        },
        {
          "name": "E2",
          "midi": 40,
          "time": 149.59999999999877,
          "velocity": 0.6299212598425197,
          "duration": 0.39833333333334053
        },
        {
          "name": "D#3",
          "midi": 51,
          "time": 149.59999999999877,
          "velocity": 0.6299212598425197,
          "duration": 0.39833333333334053
        },
        {
          "name": "D#3",
          "midi": 51,
          "time": 149.99999999999878,
          "velocity": 0.6299212598425197,
          "duration": 0.39833333333334053
        },
        {
          "name": "E2",
          "midi": 40,
          "time": 150.39999999999878,
          "velocity": 0.6299212598425197,
          "duration": 0.39833333333334053
        },
        {
          "name": "E2",
          "midi": 40,
          "time": 150.7999999999988,
          "velocity": 0.6299212598425197,
          "duration": 0.39833333333334053
        },
        {
          "name": "B1",
          "midi": 35,
          "time": 151.1999999999988,
          "velocity": 0.6299212598425197,
          "duration": 0.39833333333334053
        },
        {
          "name": "B1",
          "midi": 35,
          "time": 151.5999999999988,
          "velocity": 0.6299212598425197,
          "duration": 0.39833333333334053
        },
        {
          "name": "E2",
          "midi": 40,
          "time": 151.9999999999988,
          "velocity": 0.6299212598425197,
          "duration": 0.39833333333334053
        },
        {
          "name": "E2",
          "midi": 40,
          "time": 152.3999999999988,
          "velocity": 0.6299212598425197,
          "duration": 0.39833333333334053
        },
        {
          "name": "E2",
          "midi": 40,
          "time": 152.79999999999882,
          "velocity": 0.6299212598425197,
          "duration": 0.39833333333334053
        },
        {
          "name": "E2",
          "midi": 40,
          "time": 153.19999999999882,
          "velocity": 0.6299212598425197,
          "duration": 0.39833333333334053
        },
        {
          "name": "B1",
          "midi": 35,
          "time": 153.59999999999883,
          "velocity": 0.6299212598425197,
          "duration": 0.39833333333334053
        },
        {
          "name": "F#2",
          "midi": 42,
          "time": 153.59999999999883,
          "velocity": 0.6299212598425197,
          "duration": 0.39833333333334053
        },
        {
          "name": "B1",
          "midi": 35,
          "time": 153.99999999999883,
          "velocity": 0.6299212598425197,
          "duration": 0.39833333333334053
        },
        {
          "name": "F#2",
          "midi": 42,
          "time": 153.99999999999883,
          "velocity": 0.6299212598425197,
          "duration": 0.39833333333334053
        },
        {
          "name": "E2",
          "midi": 40,
          "time": 154.39999999999884,
          "velocity": 0.6299212598425197,
          "duration": 0.39833333333334053
        },
        {
          "name": "F#2",
          "midi": 42,
          "time": 154.39999999999884,
          "velocity": 0.6299212598425197,
          "duration": 0.39833333333334053
        },
        {
          "name": "F#2",
          "midi": 42,
          "time": 154.79999999999885,
          "velocity": 0.6299212598425197,
          "duration": 0.39833333333334053
        },
        {
          "name": "B1",
          "midi": 35,
          "time": 155.19999999999885,
          "velocity": 0.6299212598425197,
          "duration": 0.39833333333334053
        },
        {
          "name": "F#2",
          "midi": 42,
          "time": 155.19999999999885,
          "velocity": 0.6299212598425197,
          "duration": 0.39833333333334053
        },
        {
          "name": "B1",
          "midi": 35,
          "time": 155.59999999999886,
          "velocity": 0.6299212598425197,
          "duration": 0.39833333333334053
        },
        {
          "name": "F#2",
          "midi": 42,
          "time": 155.59999999999886,
          "velocity": 0.6299212598425197,
          "duration": 0.39833333333334053
        },
        {
          "name": "E2",
          "midi": 40,
          "time": 155.99999999999886,
          "velocity": 0.6299212598425197,
          "duration": 0.39833333333334053
        },
        {
          "name": "F#2",
          "midi": 42,
          "time": 155.99999999999886,
          "velocity": 0.6299212598425197,
          "duration": 0.39833333333334053
        },
        {
          "name": "F#2",
          "midi": 42,
          "time": 156.39999999999887,
          "velocity": 0.6299212598425197,
          "duration": 0.39833333333334053
        },
        {
          "name": "E2",
          "midi": 40,
          "time": 156.79999999999887,
          "velocity": 0.6299212598425197,
          "duration": 0.39833333333334053
        },
        {
          "name": "E2",
          "midi": 40,
          "time": 157.19999999999888,
          "velocity": 0.6299212598425197,
          "duration": 0.39833333333334053
        },
        {
          "name": "E2",
          "midi": 40,
          "time": 157.5999999999989,
          "velocity": 0.6299212598425197,
          "duration": 0.39833333333334053
        },
        {
          "name": "E2",
          "midi": 40,
          "time": 157.9999999999989,
          "velocity": 0.6299212598425197,
          "duration": 0.39833333333334053
        },
        {
          "name": "E2",
          "midi": 40,
          "time": 158.3999999999989,
          "velocity": 0.6299212598425197,
          "duration": 0.39833333333334053
        },
        {
          "name": "E2",
          "midi": 40,
          "time": 158.7999999999989,
          "velocity": 0.6299212598425197,
          "duration": 0.39833333333334053
        },
        {
          "name": "B2",
          "midi": 47,
          "time": 159.1999999999989,
          "velocity": 0.6299212598425197,
          "duration": 0.39833333333334053
        },
        {
          "name": "B2",
          "midi": 47,
          "time": 159.59999999999891,
          "velocity": 0.6299212598425197,
          "duration": 0.39833333333334053
        },
        {
          "name": "B1",
          "midi": 35,
          "time": 159.99999999999892,
          "velocity": 0.6299212598425197,
          "duration": 0.39833333333334053
        },
        {
          "name": "D#3",
          "midi": 51,
          "time": 159.99999999999892,
          "velocity": 0.6299212598425197,
          "duration": 0.39833333333334053
        },
        {
          "name": "B1",
          "midi": 35,
          "time": 160.39999999999893,
          "velocity": 0.6299212598425197,
          "duration": 0.39833333333334053
        },
        {
          "name": "D#3",
          "midi": 51,
          "time": 160.39999999999893,
          "velocity": 0.6299212598425197,
          "duration": 0.39833333333334053
        },
        {
          "name": "E2",
          "midi": 40,
          "time": 160.79999999999893,
          "velocity": 0.6299212598425197,
          "duration": 0.39833333333334053
        },
        {
          "name": "D#3",
          "midi": 51,
          "time": 160.79999999999893,
          "velocity": 0.6299212598425197,
          "duration": 0.39833333333334053
        },
        {
          "name": "D#3",
          "midi": 51,
          "time": 161.19999999999894,
          "velocity": 0.6299212598425197,
          "duration": 0.39833333333334053
        },
        {
          "name": "B1",
          "midi": 35,
          "time": 161.59999999999894,
          "velocity": 0.6299212598425197,
          "duration": 0.39833333333334053
        },
        {
          "name": "D#3",
          "midi": 51,
          "time": 161.59999999999894,
          "velocity": 0.6299212598425197,
          "duration": 0.39833333333334053
        },
        {
          "name": "B1",
          "midi": 35,
          "time": 161.99999999999895,
          "velocity": 0.6299212598425197,
          "duration": 0.39833333333334053
        },
        {
          "name": "D#3",
          "midi": 51,
          "time": 161.99999999999895,
          "velocity": 0.6299212598425197,
          "duration": 0.39833333333334053
        },
        {
          "name": "E2",
          "midi": 40,
          "time": 162.39999999999895,
          "velocity": 0.6299212598425197,
          "duration": 0.39833333333334053
        },
        {
          "name": "D#3",
          "midi": 51,
          "time": 162.39999999999895,
          "velocity": 0.6299212598425197,
          "duration": 0.39833333333334053
        },
        {
          "name": "D#3",
          "midi": 51,
          "time": 162.79999999999896,
          "velocity": 0.6299212598425197,
          "duration": 0.39833333333334053
        },
        {
          "name": "E2",
          "midi": 40,
          "time": 163.19999999999897,
          "velocity": 0.6299212598425197,
          "duration": 0.39833333333334053
        },
        {
          "name": "E2",
          "midi": 40,
          "time": 163.59999999999897,
          "velocity": 0.6299212598425197,
          "duration": 0.39833333333334053
        },
        {
          "name": "E2",
          "midi": 40,
          "time": 163.99999999999898,
          "velocity": 0.6299212598425197,
          "duration": 0.39833333333334053
        },
        {
          "name": "E2",
          "midi": 40,
          "time": 164.39999999999898,
          "velocity": 0.6299212598425197,
          "duration": 0.39833333333334053
        },
        {
          "name": "A#2",
          "midi": 46,
          "time": 164.799999999999,
          "velocity": 0.6299212598425197,
          "duration": 0.39833333333334053
        },
        {
          "name": "E2",
          "midi": 40,
          "time": 165.199999999999,
          "velocity": 0.6299212598425197,
          "duration": 0.39833333333334053
        },
        {
          "name": "E2",
          "midi": 40,
          "time": 165.599999999999,
          "velocity": 0.6299212598425197,
          "duration": 0.39833333333334053
        },
        {
          "name": "E2",
          "midi": 40,
          "time": 165.999999999999,
          "velocity": 0.6299212598425197,
          "duration": 0.39833333333334053
        },
        {
          "name": "B1",
          "midi": 35,
          "time": 166.399999999999,
          "velocity": 0.6299212598425197,
          "duration": 0.39833333333334053
        },
        {
          "name": "F#2",
          "midi": 42,
          "time": 166.399999999999,
          "velocity": 0.6299212598425197,
          "duration": 0.39833333333334053
        },
        {
          "name": "B1",
          "midi": 35,
          "time": 166.79999999999902,
          "velocity": 0.6299212598425197,
          "duration": 0.39833333333334053
        },
        {
          "name": "F#2",
          "midi": 42,
          "time": 166.79999999999902,
          "velocity": 0.6299212598425197,
          "duration": 0.39833333333334053
        },
        {
          "name": "E2",
          "midi": 40,
          "time": 167.19999999999902,
          "velocity": 0.6299212598425197,
          "duration": 0.39833333333334053
        },
        {
          "name": "F#2",
          "midi": 42,
          "time": 167.19999999999902,
          "velocity": 0.6299212598425197,
          "duration": 0.39833333333334053
        },
        {
          "name": "F#2",
          "midi": 42,
          "time": 167.59999999999903,
          "velocity": 0.6299212598425197,
          "duration": 0.39833333333334053
        },
        {
          "name": "B1",
          "midi": 35,
          "time": 167.99999999999903,
          "velocity": 0.6299212598425197,
          "duration": 0.39833333333334053
        },
        {
          "name": "F#2",
          "midi": 42,
          "time": 167.99999999999903,
          "velocity": 0.6299212598425197,
          "duration": 0.39833333333334053
        },
        {
          "name": "B1",
          "midi": 35,
          "time": 168.39999999999904,
          "velocity": 0.6299212598425197,
          "duration": 0.39833333333334053
        },
        {
          "name": "F#2",
          "midi": 42,
          "time": 168.39999999999904,
          "velocity": 0.6299212598425197,
          "duration": 0.39833333333334053
        },
        {
          "name": "E2",
          "midi": 40,
          "time": 168.79999999999905,
          "velocity": 0.6299212598425197,
          "duration": 0.39833333333334053
        },
        {
          "name": "F#2",
          "midi": 42,
          "time": 168.79999999999905,
          "velocity": 0.6299212598425197,
          "duration": 0.39833333333334053
        },
        {
          "name": "F#2",
          "midi": 42,
          "time": 169.19999999999905,
          "velocity": 0.6299212598425197,
          "duration": 0.39833333333334053
        },
        {
          "name": "E2",
          "midi": 40,
          "time": 169.59999999999906,
          "velocity": 0.6299212598425197,
          "duration": 0.39833333333334053
        },
        {
          "name": "E2",
          "midi": 40,
          "time": 169.99999999999906,
          "velocity": 0.6299212598425197,
          "duration": 0.39833333333334053
        },
        {
          "name": "E2",
          "midi": 40,
          "time": 170.39999999999907,
          "velocity": 0.6299212598425197,
          "duration": 0.39833333333334053
        },
        {
          "name": "E2",
          "midi": 40,
          "time": 170.79999999999907,
          "velocity": 0.6299212598425197,
          "duration": 0.39833333333334053
        },
        {
          "name": "E2",
          "midi": 40,
          "time": 171.19999999999908,
          "velocity": 0.6299212598425197,
          "duration": 0.39833333333334053
        },
        {
          "name": "E2",
          "midi": 40,
          "time": 171.59999999999908,
          "velocity": 0.6299212598425197,
          "duration": 0.39833333333334053
        },
        {
          "name": "B2",
          "midi": 47,
          "time": 171.9999999999991,
          "velocity": 0.6299212598425197,
          "duration": 0.39833333333334053
        },
        {
          "name": "B2",
          "midi": 47,
          "time": 172.3999999999991,
          "velocity": 0.6299212598425197,
          "duration": 0.39833333333334053
        },
        {
          "name": "B1",
          "midi": 35,
          "time": 172.7999999999991,
          "velocity": 0.6299212598425197,
          "duration": 0.39833333333334053
        },
        {
          "name": "D#3",
          "midi": 51,
          "time": 172.7999999999991,
          "velocity": 0.6299212598425197,
          "duration": 0.39833333333334053
        },
        {
          "name": "B1",
          "midi": 35,
          "time": 173.1999999999991,
          "velocity": 0.6299212598425197,
          "duration": 0.39833333333334053
        },
        {
          "name": "D#3",
          "midi": 51,
          "time": 173.1999999999991,
          "velocity": 0.6299212598425197,
          "duration": 0.39833333333334053
        },
        {
          "name": "E2",
          "midi": 40,
          "time": 173.5999999999991,
          "velocity": 0.6299212598425197,
          "duration": 0.39833333333334053
        },
        {
          "name": "D#3",
          "midi": 51,
          "time": 173.5999999999991,
          "velocity": 0.6299212598425197,
          "duration": 0.39833333333334053
        },
        {
          "name": "D#3",
          "midi": 51,
          "time": 173.99999999999912,
          "velocity": 0.6299212598425197,
          "duration": 0.39833333333334053
        },
        {
          "name": "B1",
          "midi": 35,
          "time": 174.39999999999912,
          "velocity": 0.6299212598425197,
          "duration": 0.39833333333334053
        },
        {
          "name": "D#3",
          "midi": 51,
          "time": 174.39999999999912,
          "velocity": 0.6299212598425197,
          "duration": 0.39833333333334053
        },
        {
          "name": "B1",
          "midi": 35,
          "time": 174.79999999999913,
          "velocity": 0.6299212598425197,
          "duration": 0.39833333333334053
        },
        {
          "name": "D#3",
          "midi": 51,
          "time": 174.79999999999913,
          "velocity": 0.6299212598425197,
          "duration": 0.39833333333334053
        },
        {
          "name": "E2",
          "midi": 40,
          "time": 175.19999999999914,
          "velocity": 0.6299212598425197,
          "duration": 0.39833333333334053
        },
        {
          "name": "D#3",
          "midi": 51,
          "time": 175.19999999999914,
          "velocity": 0.6299212598425197,
          "duration": 0.39833333333334053
        },
        {
          "name": "D#3",
          "midi": 51,
          "time": 175.59999999999914,
          "velocity": 0.6299212598425197,
          "duration": 0.39833333333334053
        },
        {
          "name": "E2",
          "midi": 40,
          "time": 175.99999999999915,
          "velocity": 0.6299212598425197,
          "duration": 0.39833333333334053
        },
        {
          "name": "E2",
          "midi": 40,
          "time": 176.39999999999915,
          "velocity": 0.6299212598425197,
          "duration": 0.39833333333334053
        },
        {
          "name": "E2",
          "midi": 40,
          "time": 176.79999999999916,
          "velocity": 0.6299212598425197,
          "duration": 0.39833333333334053
        },
        {
          "name": "E2",
          "midi": 40,
          "time": 177.19999999999916,
          "velocity": 0.6299212598425197,
          "duration": 0.39833333333334053
        },
        {
          "name": "A#2",
          "midi": 46,
          "time": 177.59999999999917,
          "velocity": 0.6299212598425197,
          "duration": 0.39833333333334053
        },
        {
          "name": "E2",
          "midi": 40,
          "time": 177.99999999999918,
          "velocity": 0.6299212598425197,
          "duration": 0.39833333333334053
        },
        {
          "name": "E2",
          "midi": 40,
          "time": 178.39999999999918,
          "velocity": 0.6299212598425197,
          "duration": 0.39833333333334053
        },
        {
          "name": "E2",
          "midi": 40,
          "time": 178.7999999999992,
          "velocity": 0.6299212598425197,
          "duration": 0.39833333333334053
        }
      ],
      "controlChanges": {
        "7": [
          {
            "number": 7,
            "time": 0,
            "value": 0.8110236220472441
          }
        ],
        "10": [
          {
            "number": 10,
            "time": 0,
            "value": 0.49606299212598426
          }
        ],
        "91": [
          {
            "number": 91,
            "time": 0,
            "value": 0
          }
        ],
        "93": [
          {
            "number": 93,
            "time": 0,
            "value": 0
          }
        ],
        "121": [
          {
            "number": 121,
            "time": 0,
            "value": 0
          }
        ]
      }
    }
  ]
}